<svg width="105" height="112" viewBox="0 0 105 112" fill="none" xmlns="http://www.w3.org/2000/svg">
<path fill-rule="evenodd" clip-rule="evenodd" d="M92.5852 93.6926C89.5562 93.6981 86.649 92.5028 84.5025 90.3695C82.356 88.2361 81.1458 85.3394 81.1382 82.3159V43.4509L61.7647 68.5358C60.7091 69.8993 59.3553 71.004 57.8068 71.7657C56.2582 72.5273 54.5557 72.9257 52.8294 72.9305V72.9305C52.7264 72.9305 52.6132 72.9449 52.5 72.9428C52.3868 72.9408 52.2736 72.9315 52.1603 72.9305C50.4342 72.9247 48.7321 72.5258 47.1837 71.7642C45.6353 71.0027 44.2813 69.8985 43.225 68.5358L23.8618 43.4488V82.3138C23.8618 85.3469 22.6546 88.2558 20.5059 90.4005C18.3573 92.5453 15.4431 93.7502 12.4045 93.7502C9.36578 93.7502 6.45154 92.5453 4.30287 90.4005C2.1542 88.2558 0.947041 85.3469 0.947041 82.3138V12.0457C0.947041 5.39348 5.70299 0 12.4045 0C19.1368 0 21.9265 3.82444 23.4088 5.74385C44.0485 32.4851 50.7089 41.1122 52.1603 42.9905L52.5 43.4272L52.8294 42.9905C54.2808 41.1122 60.9515 32.4851 81.5912 5.74385C83.0735 3.82444 85.8529 0 92.5852 0C99.2867 0 104.043 5.39348 104.043 12.0457V82.3159C104.039 83.8138 103.739 85.2964 103.162 86.6789C102.584 88.0613 101.739 89.3166 100.675 90.3731C99.6108 91.4296 98.3489 92.2665 96.9609 92.836C95.5729 93.4056 94.086 93.6967 92.5852 93.6926ZM102.138 112H2.86179C0.967677 112 0 111.063 0 109.468C0 105.358 23.8617 93.9608 52.3353 93.9608C81.1279 93.9608 105 105.39 105 109.468C105 111.045 104.032 112 102.138 112Z" fill="url(#paint0_linear_7_67)"/>
<defs>
<linearGradient id="paint0_linear_7_67" x1="52.5" y1="0" x2="52.5" y2="112" gradientUnits="userSpaceOnUse">
<stop stop-color="#16F6AB"/>
<stop offset="0.5" stop-color="#0AC3C9"/>
<stop offset="1" stop-color="#008FE8"/>
</linearGradient>
</defs>
</svg>
