<svg width="253" height="252" viewBox="0 0 253 252" fill="none" xmlns="http://www.w3.org/2000/svg">
<g filter="url(#filter0_f_39_255)">
<path d="M126.5 222C179.795 222 223 179.019 223 126C223 72.9807 179.795 30 126.5 30C73.2045 30 30 72.9807 30 126C30 179.019 73.2045 222 126.5 222Z" fill="white"/>
</g>
<path fill-rule="evenodd" clip-rule="evenodd" d="M167.585 162.693C164.556 162.698 161.649 161.503 159.502 159.369C157.356 157.236 156.146 154.339 156.138 151.316V112.451L136.765 137.536C135.709 138.899 134.355 140.004 132.807 140.766C131.258 141.527 129.556 141.926 127.829 141.93C127.726 141.93 127.613 141.945 127.5 141.943C127.387 141.941 127.274 141.932 127.16 141.93C125.434 141.925 123.732 141.526 122.184 140.764C120.635 140.003 119.281 138.899 118.225 137.536L98.8618 112.449V151.314C98.8618 154.347 97.6546 157.256 95.5059 159.401C93.3573 161.545 90.4431 162.75 87.4045 162.75C84.3658 162.75 81.4515 161.545 79.3029 159.401C77.1542 157.256 75.947 154.347 75.947 151.314V81.0457C75.947 74.3935 80.703 69 87.4045 69C94.1368 69 96.9265 72.8244 98.4088 74.7438C119.049 101.485 125.709 110.112 127.16 111.991L127.5 112.427L127.829 111.991C129.281 110.112 135.951 101.485 156.591 74.7438C158.074 72.8244 160.853 69 167.585 69C174.287 69 179.043 74.3935 179.043 81.0457V151.316C179.039 152.814 178.739 154.296 178.162 155.679C177.584 157.061 176.739 158.317 175.675 159.373C174.611 160.43 173.349 161.266 171.961 161.836C170.573 162.406 169.086 162.697 167.585 162.693ZM177.138 181H77.8618C75.9677 181 75 180.063 75 178.468C75 174.358 98.8617 162.961 127.335 162.961C156.128 162.961 180 174.39 180 178.468C180 180.045 179.032 181 177.138 181Z" fill="url(#paint0_linear_39_255)"/>
<defs>
<filter id="filter0_f_39_255" x="0" y="0" width="253" height="252" filterUnits="userSpaceOnUse" color-interpolation-filters="sRGB">
<feFlood flood-opacity="0" result="BackgroundImageFix"/>
<feBlend mode="normal" in="SourceGraphic" in2="BackgroundImageFix" result="shape"/>
<feGaussianBlur stdDeviation="15" result="effect1_foregroundBlur_39_255"/>
</filter>
<linearGradient id="paint0_linear_39_255" x1="127.5" y1="69" x2="127.5" y2="181" gradientUnits="userSpaceOnUse">
<stop stop-color="#16F6AB"/>
<stop offset="0.5" stop-color="#0AC3C9"/>
<stop offset="1" stop-color="#008FE8"/>
</linearGradient>
</defs>
</svg>
