<svg width="52" height="64" viewBox="0 0 52 64" fill="none" xmlns="http://www.w3.org/2000/svg">
<path fill-rule="evenodd" clip-rule="evenodd" d="M30.9196 0H9.01496C6.8389 0.00965981 4.7556 0.875768 3.22183 2.40839C1.68806 3.94101 0.829106 6.01508 0.833359 8.1756V55.826C0.829107 57.9864 1.68811 60.0602 3.22192 61.5926C4.75574 63.1249 6.83905 63.9908 9.01496 64H43.6516C45.8275 63.9908 47.9109 63.1249 49.4448 61.5926C50.9786 60.0602 51.8376 57.9864 51.8333 55.826V20.5976L30.9196 0ZM31.6021 6.65382L44.8983 19.7533H35.4892C34.4545 19.7491 33.4638 19.3376 32.7345 18.609C32.0051 17.8804 31.5967 16.8943 31.5989 15.8671V6.65382H31.6021ZM43.6516 59.7488H9.01496C7.97243 59.7441 6.97425 59.3293 6.23931 58.5951C5.50437 57.861 5.09264 56.8674 5.09434 55.8323V8.1692C5.09264 7.13412 5.50437 6.14057 6.23931 5.40643C6.97425 4.67228 7.97243 4.25751 9.01496 4.25289H27.3378V15.8687C27.3335 18.021 28.1894 20.0873 29.7175 21.614C31.2456 23.1407 33.3213 24.0033 35.4892 24.0125H47.569V55.826C47.5712 56.8607 47.16 57.854 46.4256 58.5882C45.6913 59.3223 44.6937 59.7373 43.6516 59.7424V59.7488ZM26.3325 36.6895C26.0518 36.6903 25.7739 36.746 25.5148 36.8535C25.2558 36.961 25.0207 37.1181 24.8228 37.3159C24.6249 37.5137 24.4683 37.7482 24.3618 38.0061C24.2552 38.264 24.2009 38.5403 24.202 38.819V46.8756C24.1942 47.1583 24.2435 47.4398 24.3471 47.7033C24.4507 47.9668 24.6065 48.207 24.8051 48.4097C25.0038 48.6125 25.2414 48.7736 25.5039 48.8837C25.7664 48.9937 26.0484 49.0503 26.3333 49.0503C26.6182 49.0503 26.9002 48.9937 27.1627 48.8837C27.4252 48.7736 27.6628 48.6125 27.8615 48.4097C28.0601 48.207 28.2159 47.9668 28.3195 47.7033C28.4231 47.4398 28.4724 47.1583 28.4646 46.8756V38.8158C28.4661 38.5367 28.412 38.26 28.3056 38.0016C28.1992 37.7433 28.0424 37.5082 27.8444 37.3101C27.6463 37.112 27.4108 36.9546 27.1514 36.847C26.8919 36.7394 26.6137 36.6837 26.3325 36.6831V36.6895ZM26.3325 27.6443C25.9061 27.6415 25.4885 27.7644 25.1325 27.9975C24.7766 28.2307 24.4984 28.5636 24.3333 28.9539C24.1681 29.3442 24.1234 29.7745 24.2048 30.19C24.2862 30.6056 24.4902 30.9878 24.7907 31.2882C25.0912 31.5885 25.4747 31.7935 25.8927 31.8771C26.3108 31.9608 26.7445 31.9193 27.1387 31.7579C27.5329 31.5966 27.87 31.3226 28.1072 30.9708C28.3444 30.619 28.471 30.2052 28.4711 29.7818C28.4729 29.5015 28.4191 29.2236 28.3127 28.964C28.2063 28.7044 28.0493 28.4683 27.8508 28.269C27.6523 28.0697 27.4162 27.9112 27.156 27.8027C26.8957 27.6941 26.6164 27.6376 26.3341 27.6364L26.3325 27.6443Z" fill="#808080"/>
</svg>
