<svg width="72" height="68" viewBox="0 0 72 68" fill="none" xmlns="http://www.w3.org/2000/svg">
<path fill-rule="evenodd" clip-rule="evenodd" d="M33.2975 66.3165C24.5781 66.2554 16.2364 62.7351 10.0923 56.5233C3.94808 50.3116 0.5 41.9126 0.5 33.1583C0.5 24.404 3.94808 16.0049 10.0923 9.79317C16.2364 3.58142 24.5781 0.0610765 33.2975 0C33.8668 0.00383998 34.4114 0.23391 34.8122 0.639848C35.2129 1.04579 35.4371 1.5945 35.4358 2.16602V10.0588L40.6286 10.9594C41.0421 11.0277 41.4261 11.2175 41.7323 11.5047C42.0384 11.792 42.2529 12.1638 42.3487 12.5734L44.0047 19.3719H50.998C51.4342 19.3737 51.8596 19.5081 52.2183 19.7573C52.5769 20.0065 52.8521 20.3588 53.0076 20.768L56.1585 29.1401L64.4381 31.0382C64.914 31.1479 65.3387 31.4168 65.6425 31.8007C65.9463 32.1846 66.1112 32.6607 66.1101 33.151C66.1085 40.7076 63.5522 48.0399 58.8595 53.9481C58.6827 54.1692 58.4641 54.353 58.2162 54.489C57.9683 54.625 57.696 54.7105 57.4151 54.7405C57.1342 54.7705 56.8503 54.7445 56.5795 54.6639C56.3087 54.5833 56.0563 54.4496 55.8371 54.2708C55.3963 53.907 55.1156 53.3838 55.0554 52.8141C54.9953 52.2443 55.1606 51.6737 55.5156 51.2252C59.2626 46.5681 61.451 40.8432 61.7695 34.8652L54.0848 33.1042C53.7402 33.0229 53.4208 32.8579 53.1546 32.6238C52.8883 32.3896 52.6831 32.0934 52.5574 31.7613L49.5189 23.691H42.3165C41.8348 23.6886 41.3677 23.5249 40.9891 23.2258C40.6105 22.9267 40.3423 22.5093 40.2267 22.0398L38.5224 14.9703L32.9278 14.0019C32.4278 13.9138 31.9748 13.6515 31.6484 13.2613C31.322 12.871 31.1432 12.3777 31.1433 11.8681V4.39342C27.202 4.69076 23.3642 5.80186 19.8704 7.65709C16.3765 9.51232 13.3018 12.0717 10.8388 15.1751C8.37574 18.2785 6.57739 21.859 5.55635 25.6924C4.53531 29.5258 4.31357 33.5296 4.905 37.453C5.49644 41.3764 6.88829 45.135 8.99346 48.4934C11.0986 51.8518 13.8719 54.7377 17.1394 56.9704C20.4068 59.2031 24.0981 60.7344 27.9823 61.4686C31.8665 62.2028 35.8597 62.124 39.7121 61.2371C40.2696 61.1108 40.8543 61.2121 41.3374 61.5186C41.8206 61.8251 42.1627 62.3117 42.2885 62.8714C42.4142 63.4311 42.3135 64.018 42.0082 64.5031C41.7029 64.9881 41.2183 65.3316 40.6608 65.4578C38.2466 66.0225 35.7763 66.3106 33.2975 66.3165ZM21.4973 25.1017C20.2965 25.1113 19.1199 24.7626 18.1169 24.0998C17.1138 23.4371 16.3295 22.4901 15.8633 21.3791C15.3972 20.2681 15.2703 19.0431 15.4987 17.8596C15.7271 16.676 16.3005 15.5873 17.1462 14.7315C17.9919 13.8756 19.0717 13.2912 20.2487 13.0525C21.4257 12.8138 22.6468 12.9314 23.7571 13.3905C24.8674 13.8496 25.817 14.6294 26.4851 15.6311C27.1533 16.6328 27.5099 17.8112 27.5099 19.0167C27.5138 20.6237 26.8832 22.1667 25.7563 23.3078C24.6293 24.4489 23.0978 25.0952 21.4973 25.105V25.1017ZM21.4973 17.2623C21.1512 17.2601 20.8121 17.361 20.5233 17.5524C20.2344 17.7438 20.0087 18.0171 19.8747 18.3375C19.7407 18.6579 19.7045 19.011 19.7707 19.3521C19.8368 19.6931 20.0024 20.0068 20.2464 20.2533C20.4903 20.4998 20.8016 20.6681 21.1409 20.7367C21.4802 20.8053 21.8322 20.7712 22.1521 20.6388C22.4721 20.5063 22.7456 20.2814 22.9381 19.9926C23.1306 19.7038 23.2335 19.3642 23.2335 19.0167C23.2345 18.787 23.1905 18.5593 23.1038 18.3467C23.017 18.1341 22.8892 17.9408 22.7279 17.7778C22.5666 17.6148 22.3749 17.4853 22.1637 17.3969C21.9525 17.3084 21.7261 17.2627 21.4973 17.2623ZM33.2975 39.2424C32.0968 39.252 30.9204 38.9033 29.9173 38.2405C28.9143 37.5778 28.1299 36.6308 27.6638 35.5198C27.1976 34.4088 27.0706 33.1838 27.299 32.0003C27.5273 30.8167 28.1008 29.728 28.9465 28.8722C29.7922 28.0163 30.872 27.4319 32.049 27.1932C33.226 26.9544 34.4472 27.0721 35.5575 27.5312C36.6678 27.9903 37.6172 28.7702 38.2854 29.7719C38.9535 30.7736 39.3101 31.9519 39.3102 33.1574C39.3132 34.7638 38.6822 36.306 37.5553 37.4464C36.4285 38.5868 34.8975 39.2326 33.2975 39.2424ZM33.2975 31.4046C32.9513 31.4023 32.6124 31.5034 32.3235 31.6949C32.0346 31.8864 31.8089 32.1596 31.6749 32.4801C31.541 32.8006 31.5048 33.1538 31.5711 33.4949C31.6374 33.836 31.8031 34.1498 32.0472 34.3962C32.2913 34.6427 32.6027 34.8107 32.9421 34.8791C33.2815 34.9476 33.6336 34.9133 33.9536 34.7806C34.2735 34.6479 34.547 34.4228 34.7393 34.1338C34.9317 33.8448 35.0342 33.505 35.0339 33.1574C35.0354 32.9274 34.9915 32.6994 34.905 32.4864C34.8184 32.2735 34.6909 32.0798 34.5296 31.9164C34.3682 31.7531 34.1762 31.6234 33.9648 31.5347C33.7533 31.446 33.5266 31.4001 33.2975 31.3997V31.4046ZM15.6292 43.1613C14.4291 43.1677 13.2543 42.8163 12.2533 42.1515C11.2524 41.4868 10.4706 40.5387 10.0069 39.4274C9.54321 38.3161 9.41851 37.0917 9.64873 35.9092C9.87895 34.7267 10.4536 33.6395 11.3 32.7852C12.1463 31.931 13.2263 31.3482 14.4029 31.1108C15.5794 30.8734 16.7997 30.992 17.909 31.4515C19.0184 31.9111 19.9669 32.6911 20.6344 33.6924C21.3018 34.6938 21.658 35.8715 21.658 37.0764C21.6618 38.6858 21.0289 40.2308 19.8984 41.3719C18.7679 42.513 17.2323 43.1566 15.6292 43.1613ZM15.6292 35.3235C15.2835 35.3216 14.945 35.4227 14.6566 35.6142C14.3682 35.8056 14.143 36.0787 14.0094 36.3988C13.8758 36.7189 13.8397 37.0717 13.906 37.4123C13.9722 37.753 14.1379 38.0662 14.3817 38.3123C14.6254 38.5585 14.9364 38.7263 15.2754 38.7948C15.6143 38.8632 15.9659 38.8291 16.2855 38.6967C16.6051 38.5644 16.8784 38.3396 17.0707 38.0512C17.2629 37.7627 17.3654 37.4235 17.3654 37.0764C17.3669 36.8466 17.3231 36.6188 17.2365 36.4061C17.1499 36.1934 17.0223 35.9999 16.8609 35.837C16.6995 35.674 16.5077 35.5449 16.2963 35.4567C16.0849 35.3686 15.8581 35.3233 15.6292 35.3235ZM48.8277 48.8815C47.6276 48.8879 46.4525 48.5365 45.4516 47.8717C44.4507 47.207 43.6688 46.2589 43.2051 45.1476C42.7415 44.0363 42.617 42.8118 42.8472 41.6293C43.0774 40.4468 43.6521 39.3596 44.4984 38.5053C45.3448 37.6511 46.4245 37.0684 47.6011 36.831C48.7777 36.5936 49.9981 36.7122 51.1075 37.1718C52.2169 37.6313 53.1652 38.4113 53.8326 39.4127C54.5 40.414 54.8564 41.5917 54.8564 42.7966C54.856 44.4044 54.2217 45.9467 53.092 47.0863C51.9623 48.2259 50.4291 48.8703 48.8277 48.8784V48.8815ZM48.8277 41.0437C48.4815 41.0415 48.1424 41.1425 47.8535 41.334C47.5646 41.5255 47.3388 41.7988 47.2049 42.1193C47.0709 42.4398 47.035 42.793 47.1013 43.1341C47.1675 43.4752 47.3333 43.7889 47.5774 44.0353C47.8215 44.2817 48.1329 44.4498 48.4723 44.5182C48.8117 44.5867 49.1638 44.5524 49.4837 44.4197C49.8037 44.287 50.077 44.0618 50.2693 43.7729C50.4616 43.4839 50.5642 43.1441 50.5639 42.7966C50.5639 42.3331 50.3814 41.8883 50.0562 41.5594C49.7309 41.2304 49.2893 41.0439 48.8277 41.0405V41.0437ZM30.8377 57.4634C29.6369 57.473 28.4604 57.1243 27.4573 56.4615C26.4543 55.7986 25.6699 54.8516 25.2038 53.7405C24.7377 52.6294 24.6109 51.4043 24.8394 50.2207C25.0679 49.0371 25.6414 47.9484 26.4873 47.0926C27.3331 46.2368 28.4133 45.6526 29.5904 45.414C30.7675 45.1755 31.9886 45.2934 33.0989 45.7527C34.2092 46.2121 35.1584 46.9921 35.8264 47.994C36.4943 48.9959 36.8509 50.1745 36.8506 51.3801C36.8523 52.9857 36.2207 54.5266 35.094 55.666C33.9672 56.8053 32.4369 57.4504 30.8377 57.4602V57.4634ZM30.8377 49.6273C30.492 49.6253 30.1535 49.7264 29.8651 49.9179C29.5767 50.1093 29.3515 50.3824 29.2179 50.7025C29.0843 51.0227 29.0484 51.3754 29.1147 51.716C29.1809 52.0567 29.3464 52.37 29.5902 52.6161C29.834 52.8622 30.1451 53.0301 30.4841 53.0985C30.823 53.1669 31.1744 53.1329 31.494 53.0005C31.8136 52.8681 32.0869 52.6434 32.2792 52.3549C32.4714 52.0664 32.5741 51.7272 32.5741 51.3801C32.5756 51.1502 32.5318 50.9222 32.4452 50.7093C32.3586 50.4964 32.2309 50.3028 32.0696 50.1396C31.9082 49.9764 31.7164 49.8469 31.505 49.7584C31.2936 49.6699 31.0668 49.6242 30.8377 49.624V49.6273ZM54.776 68C54.498 68.0003 54.2229 67.9452 53.9662 67.8379C53.7096 67.7307 53.4767 67.5735 53.2809 67.3753L46.0464 60.1735C45.6396 59.7697 45.408 59.221 45.4019 58.6467C45.3959 58.0724 45.616 57.519 46.0142 57.1067C46.2119 56.9042 46.4474 56.7429 46.7074 56.6322C46.9674 56.5214 47.2467 56.4634 47.5291 56.4615C47.8115 56.4595 48.0916 56.5137 48.3531 56.6209C48.6146 56.728 48.8524 56.886 49.0528 57.0857L54.8082 62.8237L67.8785 50.381C68.0833 50.1854 68.3248 50.0326 68.5887 49.9312C68.8527 49.8298 69.134 49.7819 69.4165 49.7903C69.699 49.7987 69.9771 49.8632 70.2347 49.9801C70.4922 50.097 70.7241 50.264 70.917 50.4714C71.3078 50.8917 71.517 51.4501 71.4989 52.0247C71.4809 52.5993 71.2369 53.1434 70.8205 53.5381L56.2551 67.419C55.8532 67.7934 55.3242 68 54.776 67.9967V68Z" fill="#808080"/>
</svg>
