<svg width="86" height="77" viewBox="0 0 86 77" fill="none" xmlns="http://www.w3.org/2000/svg">
<path fill-rule="evenodd" clip-rule="evenodd" d="M74.7504 49.241C74.4709 49.2417 74.1943 49.2978 73.9364 49.4065C73.6784 49.5152 73.4442 49.6742 73.2471 49.8743C73.05 50.0745 72.8939 50.3119 72.7876 50.573C72.6814 50.8342 72.6272 51.1139 72.628 51.3962V70.7433C72.6289 71.2567 72.4286 71.7496 72.0709 72.1142C71.7132 72.4789 71.2271 72.6857 70.7189 72.6896H6.32211C5.81392 72.6857 5.32786 72.4789 4.97014 72.1142C4.61242 71.7496 4.4121 71.2567 4.41296 70.7433V23.769C4.41168 23.2555 4.61185 22.7623 4.96965 22.3976C5.32746 22.0328 5.81378 21.8261 6.32211 21.8227H40.868C41.4239 21.8074 41.952 21.5735 42.3399 21.1708C42.7277 20.7681 42.9447 20.2285 42.9447 19.6666C42.9447 19.1048 42.7277 18.5652 42.3399 18.1626C41.952 17.7599 41.4239 17.526 40.868 17.5106H6.32211C4.68479 17.5174 3.11697 18.1803 1.96293 19.3536C0.808889 20.527 0.162897 22.115 0.166704 23.769V70.7417C0.162897 72.3957 0.808889 73.9837 1.96293 75.157C3.11697 76.3304 4.68479 76.9932 6.32211 77H70.7142C72.3517 76.9932 73.9196 76.3304 75.0739 75.1571C76.2281 73.9838 76.8745 72.3959 76.8711 70.7417V51.3962C76.872 51.1141 76.8177 50.8345 76.7116 50.5734C76.6055 50.3124 76.4495 50.075 76.2526 49.8749C76.0557 49.6748 75.8217 49.5158 75.5639 49.407C75.3062 49.2982 75.0297 49.2419 74.7504 49.241ZM9.24941 59.7695C9.24941 61.899 10.0353 66.8507 17.325 66.8507H34.7905C39.3645 66.8507 42.3173 64.0719 42.3173 59.7695C42.2965 57.0379 41.4092 54.3849 39.7859 52.2001C38.1627 50.0153 35.8889 48.4138 33.2982 47.6306C34.8538 46.1157 35.9246 44.165 36.3728 42.0298C36.8211 39.8945 36.6261 37.6726 35.8131 35.6503C35.0001 33.628 33.6063 31.898 31.8112 30.6832C30.0161 29.4683 27.9021 28.8242 25.7414 28.834C23.5808 28.8437 21.4724 29.5069 19.6882 30.7379C17.9039 31.9689 16.5255 33.7115 15.7304 35.7411C14.9353 37.7706 14.76 39.9941 15.2271 42.1252C15.6942 44.2563 16.7823 46.1973 18.3512 47.6981C12.3581 49.9417 9.24941 54.8709 9.24941 59.7695ZM19.2199 39.7635C19.2272 38.454 19.6181 37.1759 20.3435 36.0906C21.0689 35.0053 22.0964 34.1614 23.2961 33.6652C24.4958 33.169 25.814 33.0429 27.0846 33.3027C28.3551 33.5626 29.5211 34.1967 30.4353 35.1251C31.3495 36.0536 31.971 37.2348 32.2215 38.5197C32.4719 39.8046 32.3401 41.1356 31.8426 42.3448C31.345 43.5541 30.5041 44.5875 29.4259 45.3145C28.3477 46.0416 27.0805 46.4297 25.7841 46.4301C24.0385 46.4228 22.367 45.7163 21.1364 44.4656C19.9057 43.2149 19.2165 41.5221 19.2199 39.7587V39.7635ZM25.7841 50.7485C34.8526 50.7485 38.0742 55.4093 38.0742 59.7695C38.0742 60.9588 37.7337 62.5387 34.7889 62.5387H17.325C13.4909 62.5387 13.4909 60.8062 13.4909 59.7695C13.4909 55.4205 17.3362 50.7437 25.7841 50.7437V50.7485ZM48.9499 57.3942H59.6268C60.1827 57.3789 60.7108 57.1449 61.0987 56.7423C61.4865 56.3396 61.7036 55.8 61.7036 55.2382C61.7036 54.6764 61.4865 54.1367 61.0987 53.734C60.7108 53.3314 60.1827 53.0974 59.6268 53.0821H48.9499C48.4046 53.1122 47.8915 53.3523 47.5161 53.7529C47.1406 54.1534 46.9314 54.6841 46.9314 55.2357C46.9314 55.7874 47.1406 56.318 47.5161 56.7186C47.8915 57.1192 48.4046 57.3592 48.9499 57.3893V57.3942ZM48.9499 66.8507H65.612C66.1679 66.8354 66.696 66.6016 67.0839 66.1989C67.4717 65.7962 67.6887 65.2566 67.6887 64.6947C67.6887 64.1329 67.4717 63.5932 67.0839 63.1906C66.696 62.7879 66.1679 62.5541 65.612 62.5387H48.9499C48.4117 62.5781 47.9083 62.8218 47.5408 63.2209C47.1733 63.62 46.969 64.1448 46.969 64.6899C46.969 65.235 47.1733 65.7599 47.5408 66.159C47.9083 66.5581 48.4117 66.8018 48.9499 66.8411V66.8507ZM83.0392 7.84677C74.3828 7.84677 66.7717 0.657899 66.6938 0.585577C66.3043 0.213183 65.7895 0.00393273 65.2533 5.48735e-05C64.717 -0.00382298 64.1994 0.19796 63.8047 0.564683C63.7267 0.637005 55.8849 7.84677 47.4179 7.84677C47.1385 7.84741 46.8619 7.90362 46.6041 8.01231C46.3462 8.121 46.1121 8.28004 45.9151 8.48021C45.7182 8.68039 45.5623 8.91781 45.4562 9.17894C45.3502 9.44006 45.2961 9.7197 45.2972 10.0019V21.2377C45.1701 27.4199 46.9664 33.4866 50.4332 38.5828C53.8999 43.6791 58.8622 47.548 64.6208 49.6444C64.821 49.7055 65.029 49.7369 65.2381 49.7376C65.4473 49.7372 65.6553 49.7059 65.8554 49.6444C71.6127 47.5448 76.5726 43.6729 80.0359 38.5745C83.4993 33.4761 85.2915 27.4084 85.1599 21.2264V9.99076C85.1603 9.42185 84.9372 8.87594 84.5396 8.47305C84.142 8.07017 83.6023 7.8432 83.0392 7.84192V7.84677ZM80.9184 21.2377C81.1102 26.398 79.7034 31.4902 76.8941 35.8044C74.0847 40.1186 70.0128 43.4398 65.2461 45.305C60.496 43.4123 56.4395 40.0856 53.6296 35.7785C50.8198 31.4715 49.3934 26.3937 49.545 21.2377V12.0366C56.5149 11.2909 62.5525 7.09783 65.2237 4.96512C69.7111 8.73698 75.1422 11.184 80.9184 12.0366V21.2264V21.2377ZM57.3056 21.9834C57.1029 21.7899 56.8643 21.6389 56.6034 21.5391C56.3426 21.4394 56.0648 21.3929 55.786 21.4023C55.5073 21.4117 55.2331 21.4769 54.9795 21.594C54.7258 21.7111 54.4977 21.8779 54.3083 22.0846C53.9228 22.5041 53.7172 23.0606 53.7363 23.6327C53.7553 24.2047 53.9975 24.746 54.4101 25.1383L61.8207 32.1809C62.2097 32.5518 62.7236 32.7598 63.2585 32.7625C63.7935 32.7651 64.3093 32.5624 64.7019 32.1954L76.1838 21.5029C76.5984 21.1149 76.8446 20.5775 76.869 20.0072C76.8934 19.4369 76.6941 18.8799 76.3143 18.4572C76.1266 18.2488 75.9 18.08 75.6475 17.9604C75.395 17.8408 75.1216 17.7729 74.843 17.7605C74.5644 17.7481 74.2862 17.7915 74.0243 17.8882C73.7623 17.9849 73.522 18.133 73.3169 18.3239L63.2828 27.6679L57.3056 21.9834Z" fill="#808080"/>
</svg>
