<svg width="86" height="77" viewBox="0 0 86 77" fill="none" xmlns="http://www.w3.org/2000/svg">
<path fill-rule="evenodd" clip-rule="evenodd" d="M74.7505 49.241C74.471 49.2417 74.1944 49.2978 73.9364 49.4065C73.6785 49.5152 73.4443 49.6742 73.2472 49.8743C73.0501 50.0745 72.8939 50.3119 72.7877 50.573C72.6815 50.8342 72.6272 51.1139 72.6281 51.3962V70.7433C72.6289 71.2567 72.4287 71.7496 72.071 72.1142C71.7133 72.4789 71.2272 72.6857 70.719 72.6896H6.32218C5.81398 72.6857 5.32792 72.4789 4.9702 72.1142C4.61248 71.7496 4.41216 71.2567 4.41302 70.7433V23.769C4.41174 23.2555 4.61191 22.7623 4.96971 22.3976C5.32752 22.0328 5.81385 21.8261 6.32218 21.8227H40.868C41.424 21.8074 41.9521 21.5735 42.3399 21.1708C42.7278 20.7681 42.9448 20.2285 42.9448 19.6666C42.9448 19.1048 42.7278 18.5652 42.3399 18.1626C41.9521 17.7599 41.424 17.526 40.868 17.5106H6.32218C4.68485 17.5174 3.11703 18.1803 1.96299 19.3536C0.80895 20.527 0.162958 22.115 0.166765 23.769V70.7417C0.162958 72.3957 0.80895 73.9837 1.96299 75.157C3.11703 76.3304 4.68485 76.9932 6.32218 77H70.7142C72.3517 76.9932 73.9196 76.3304 75.0739 75.1571C76.2282 73.9838 76.8746 72.3959 76.8712 70.7417V51.3962C76.872 51.1141 76.8178 50.8345 76.7117 50.5734C76.6055 50.3124 76.4496 50.075 76.2527 49.8749C76.0557 49.6748 75.8217 49.5158 75.564 49.407C75.3062 49.2982 75.0298 49.2419 74.7505 49.241ZM9.24947 59.7695C9.24947 61.899 10.0354 66.8507 17.3251 66.8507H34.7906C39.3646 66.8507 42.3174 64.0719 42.3174 59.7695C42.2965 57.0379 41.4093 54.3849 39.786 52.2001C38.1627 50.0153 35.8889 48.4138 33.2983 47.6306C34.8539 46.1157 35.9247 44.165 36.3729 42.0298C36.8211 39.8945 36.6262 37.6726 35.8132 35.6503C35.0002 33.628 33.6063 31.898 31.8112 30.6832C30.0162 29.4683 27.9021 28.8242 25.7415 28.834C23.5808 28.8437 21.4725 29.5069 19.6882 30.7379C17.904 31.9689 16.5256 33.7115 15.7305 35.7411C14.9354 37.7706 14.7601 39.9941 15.2272 42.1252C15.6943 44.2563 16.7824 46.1973 18.3513 47.6981C12.3582 49.9417 9.24947 54.8709 9.24947 59.7695ZM19.22 39.7635C19.2272 38.454 19.6182 37.1759 20.3436 36.0906C21.069 35.0053 22.0964 34.1614 23.2961 33.6652C24.4958 33.169 25.8141 33.0429 27.0846 33.3027C28.3552 33.5626 29.5212 34.1967 30.4354 35.1251C31.3496 36.0536 31.9711 37.2348 32.2215 38.5197C32.472 39.8046 32.3401 41.1356 31.8426 42.3448C31.3451 43.5541 30.5042 44.5875 29.426 45.3145C28.3478 46.0416 27.0806 46.4297 25.7842 46.4301C24.0386 46.4228 22.3671 45.7163 21.1364 44.4656C19.9058 43.2149 19.2166 41.5221 19.22 39.7587V39.7635ZM25.7842 50.7485C34.8526 50.7485 38.0742 55.4093 38.0742 59.7695C38.0742 60.9588 37.7338 62.5387 34.7889 62.5387H17.3251C13.4909 62.5387 13.491 60.8062 13.491 59.7695C13.491 55.4205 17.3363 50.7437 25.7842 50.7437V50.7485ZM48.95 57.3942H59.6268C60.1828 57.3789 60.7109 57.1449 61.0987 56.7423C61.4866 56.3396 61.7037 55.8 61.7037 55.2382C61.7037 54.6764 61.4866 54.1367 61.0987 53.734C60.7109 53.3314 60.1828 53.0974 59.6268 53.0821H48.95C48.4047 53.1122 47.8916 53.3523 47.5161 53.7529C47.1407 54.1534 46.9315 54.6841 46.9315 55.2357C46.9315 55.7874 47.1407 56.318 47.5161 56.7186C47.8916 57.1192 48.4047 57.3592 48.95 57.3893V57.3942ZM48.95 66.8507H65.612C66.168 66.8354 66.6961 66.6016 67.0839 66.1989C67.4718 65.7962 67.6888 65.2566 67.6888 64.6947C67.6888 64.1329 67.4718 63.5932 67.0839 63.1906C66.6961 62.7879 66.168 62.5541 65.612 62.5387H48.95C48.4118 62.5781 47.9084 62.8218 47.5409 63.2209C47.1734 63.62 46.9691 64.1448 46.9691 64.6899C46.9691 65.235 47.1734 65.7599 47.5409 66.159C47.9084 66.5581 48.4118 66.8018 48.95 66.8411V66.8507ZM83.0392 7.84677C74.3829 7.84677 66.7718 0.657899 66.6938 0.585577C66.3044 0.213183 65.7896 0.00393273 65.2533 5.48735e-05C64.7171 -0.00382298 64.1994 0.19796 63.8047 0.564683C63.7268 0.637005 55.885 7.84677 47.418 7.84677C47.1386 7.84741 46.862 7.90362 46.6041 8.01231C46.3463 8.121 46.1122 8.28004 45.9152 8.48021C45.7182 8.68039 45.5623 8.91781 45.4563 9.17894C45.3502 9.44006 45.2962 9.7197 45.2972 10.0019V21.2377C45.1701 27.4199 46.9665 33.4866 50.4332 38.5828C53.9 43.6791 58.8623 47.548 64.6209 49.6444C64.8211 49.7055 65.029 49.7369 65.2382 49.7376C65.4473 49.7372 65.6553 49.7059 65.8555 49.6444C71.6127 47.5448 76.5726 43.6729 80.036 38.5745C83.4994 33.4761 85.2915 27.4084 85.16 21.2264V9.99076C85.1604 9.42185 84.9373 8.87594 84.5397 8.47305C84.1421 8.07017 83.6024 7.8432 83.0392 7.84192V7.84677ZM80.9185 21.2377C81.1103 26.398 79.7035 31.4902 76.8941 35.8044C74.0847 40.1186 70.0129 43.4398 65.2461 45.305C60.4961 43.4123 56.4395 40.0856 53.6297 35.7785C50.8199 31.4715 49.3934 26.3937 49.545 21.2377V12.0366C56.515 11.2909 62.5526 7.09783 65.2238 4.96512C69.7111 8.73698 75.1422 11.184 80.9185 12.0366V21.2264V21.2377ZM57.3057 21.9834C57.103 21.7899 56.8643 21.6389 56.6035 21.5391C56.3427 21.4394 56.0648 21.3929 55.7861 21.4023C55.5073 21.4117 55.2332 21.4769 54.9795 21.594C54.7259 21.7111 54.4978 21.8779 54.3084 22.0846C53.9229 22.5041 53.7172 23.0606 53.7363 23.6327C53.7554 24.2047 53.9976 24.746 54.4101 25.1383L61.8208 32.1809C62.2097 32.5518 62.7237 32.7598 63.2586 32.7625C63.7935 32.7651 64.3094 32.5624 64.702 32.1954L76.1839 21.5029C76.5984 21.1149 76.8446 20.5775 76.8691 20.0072C76.8935 19.4369 76.6941 18.8799 76.3143 18.4572C76.1267 18.2488 75.9001 18.08 75.6476 17.9604C75.3951 17.8408 75.1217 17.7729 74.8431 17.7605C74.5645 17.7481 74.2862 17.7915 74.0243 17.8882C73.7624 17.9849 73.522 18.133 73.317 18.3239L63.2829 27.6679L57.3057 21.9834Z" fill="#808080"/>
</svg>
