<svg width="62" height="66" viewBox="0 0 62 66" fill="none" xmlns="http://www.w3.org/2000/svg">
<path fill-rule="evenodd" clip-rule="evenodd" d="M28.2376 60.9539H8.75519C7.70316 60.9497 6.69575 60.5266 5.95412 59.7775C5.21249 59.0285 4.79721 58.0147 4.79936 56.9586V8.34042C4.79721 7.28432 5.21249 6.27056 5.95412 5.52152C6.69575 4.77247 7.70316 4.34939 8.75519 4.3451H41.5516C42.6037 4.34939 43.6112 4.77241 44.3531 5.52142C45.095 6.27042 45.5107 7.28417 45.509 8.34042V12.1837C45.509 12.756 45.7355 13.3049 46.1386 13.7096C46.5417 14.1143 47.0885 14.3417 47.6586 14.3417C48.2288 14.3417 48.7755 14.1143 49.1787 13.7096C49.5818 13.3049 49.8083 12.756 49.8083 12.1837V8.34042C49.8126 6.13604 48.9457 4.01996 47.3978 2.45638C45.8499 0.892795 43.7474 0.00942723 41.5516 0H8.75519C6.55959 0.00985468 4.45747 0.893434 2.90993 2.45697C1.36239 4.02051 0.495724 6.13632 0.500016 8.34042V56.9586C0.495725 59.1626 1.36244 61.2782 2.91003 62.8415C4.45762 64.4048 6.55974 65.288 8.75519 65.2975H28.2376C28.8011 65.282 29.3364 65.0464 29.7295 64.6408C30.1227 64.2352 30.3427 63.6916 30.3427 63.1257C30.3427 62.5597 30.1227 62.0162 29.7295 61.6106C29.3364 61.205 28.8011 60.9694 28.2376 60.9539ZM13.9205 13.6018C13.357 13.6172 12.8217 13.8529 12.4285 14.2585C12.0354 14.664 11.8153 15.2076 11.8153 15.7735C11.8153 16.3394 12.0354 16.883 12.4285 17.2886C12.8217 17.6942 13.357 17.9298 13.9205 17.9453H35.2364C35.7999 17.9298 36.3352 17.6942 36.7284 17.2886C37.1215 16.883 37.3416 16.3394 37.3416 15.7735C37.3416 15.2076 37.1215 14.664 36.7284 14.2585C36.3352 13.8529 35.7999 13.6172 35.2364 13.6018H13.9237H13.9205ZM28.2376 27.0384H13.9205C13.3465 27.0384 12.796 27.2673 12.3901 27.6748C11.9843 28.0822 11.7563 28.6348 11.7563 29.211C11.7563 29.7872 11.9843 30.3398 12.3901 30.7472C12.796 31.1546 13.3465 31.3835 13.9205 31.3835H28.2376C28.7967 31.3619 29.3257 31.1237 29.7136 30.719C30.1015 30.3142 30.3181 29.7743 30.3181 29.2126C30.3181 28.6509 30.1015 28.1111 29.7136 27.7064C29.3257 27.3016 28.7967 27.0634 28.2376 27.0417V27.0384ZM61.4968 36.9363C61.4915 34.6283 60.9137 32.3579 59.8155 30.3301C58.7173 28.3024 57.1332 26.5813 55.2064 25.322C53.2796 24.0628 51.0707 23.3052 48.7791 23.1176C46.4876 22.93 44.1856 23.3182 42.081 24.2474C39.9764 25.1766 38.1355 26.6174 36.7244 28.4396C35.3134 30.2619 34.3767 32.4083 33.999 34.6849C33.6212 36.9616 33.8143 39.2969 34.5608 41.4799C35.3073 43.6629 36.5837 45.6249 38.2747 47.1886V66L47.5974 60.6383L56.9201 66V47.3068C58.3623 45.9966 59.5149 44.3975 60.3037 42.6127C61.0925 40.8279 61.5001 38.897 61.5 36.9444L61.4968 36.9363ZM52.6272 58.5305L47.6038 55.6408L42.5804 58.5305V49.9327C45.8006 51.2362 49.3959 51.2518 52.6272 49.9763V58.5305ZM47.6635 46.5783C45.7612 46.5908 43.898 46.036 42.3102 44.9841C40.7225 43.9323 39.4816 42.4309 38.745 40.6702C38.0084 38.9094 37.8091 36.9687 38.1726 35.0942C38.5361 33.2197 39.4459 31.4958 40.7867 30.141C42.1274 28.7862 43.8387 27.8616 45.7036 27.4845C47.5684 27.1073 49.5029 27.2945 51.2616 28.0224C53.0203 28.7503 54.5241 29.986 55.5823 31.573C56.6405 33.1599 57.2055 35.0266 57.2056 36.9363C57.2129 39.4864 56.2114 41.9352 54.4213 43.7446C52.6313 45.554 50.1989 46.5761 47.6586 46.5864L47.6635 46.5783Z" fill="#808080"/>
</svg>
