<svg width="52" height="64" viewBox="0 0 52 64" fill="none" xmlns="http://www.w3.org/2000/svg">
<path fill-rule="evenodd" clip-rule="evenodd" d="M30.9195 0H9.01487C6.83881 0.00965981 4.7555 0.875768 3.22173 2.40839C1.68797 3.94101 0.829014 6.01508 0.833268 8.1756V55.826C0.829015 57.9864 1.68802 60.0602 3.22183 61.5926C4.75565 63.1249 6.83896 63.9908 9.01487 64H43.6515C45.8274 63.9908 47.9109 63.1249 49.4447 61.5926C50.9785 60.0602 51.8375 57.9864 51.8332 55.826V20.5976L30.9195 0ZM31.602 6.65382L44.8982 19.7533H35.4891C34.4544 19.7491 33.4637 19.3376 32.7344 18.609C32.005 17.8804 31.5967 16.8943 31.5988 15.8671V6.65382H31.602ZM43.6515 59.7488H9.01487C7.97233 59.7441 6.97416 59.3293 6.23922 58.5951C5.50428 57.861 5.09255 56.8674 5.09425 55.8323V8.1692C5.09255 7.13412 5.50428 6.14057 6.23922 5.40643C6.97416 4.67228 7.97233 4.25751 9.01487 4.25289H27.3377V15.8687C27.3334 18.021 28.1893 20.0873 29.7174 21.614C31.2455 23.1407 33.3212 24.0033 35.4891 24.0125H47.5689V55.826C47.5711 56.8607 47.1599 57.854 46.4255 58.5882C45.6912 59.3223 44.6936 59.7373 43.6515 59.7424V59.7488ZM26.3324 36.6895C26.0517 36.6903 25.7738 36.746 25.5147 36.8535C25.2557 36.961 25.0206 37.1181 24.8227 37.3159C24.6248 37.5137 24.4682 37.7482 24.3617 38.0061C24.2552 38.264 24.2008 38.5403 24.2019 38.819V46.8756C24.1941 47.1583 24.2434 47.4398 24.347 47.7033C24.4506 47.9668 24.6064 48.207 24.805 48.4097C25.0037 48.6125 25.2413 48.7736 25.5038 48.8837C25.7663 48.9937 26.0483 49.0503 26.3332 49.0503C26.6181 49.0503 26.9001 48.9937 27.1626 48.8837C27.4251 48.7736 27.6627 48.6125 27.8614 48.4097C28.06 48.207 28.2158 47.9668 28.3194 47.7033C28.423 47.4398 28.4723 47.1583 28.4645 46.8756V38.8158C28.466 38.5367 28.4119 38.26 28.3055 38.0016C28.1991 37.7433 28.0424 37.5082 27.8443 37.3101C27.6462 37.112 27.4107 36.9546 27.1513 36.847C26.8918 36.7394 26.6136 36.6837 26.3324 36.6831V36.6895ZM26.3324 27.6443C25.906 27.6415 25.4884 27.7644 25.1324 27.9975C24.7765 28.2307 24.4983 28.5636 24.3332 28.9539C24.168 29.3442 24.1233 29.7745 24.2047 30.19C24.2862 30.6056 24.4901 30.9878 24.7906 31.2882C25.0911 31.5885 25.4746 31.7935 25.8927 31.8771C26.3107 31.9608 26.7444 31.9193 27.1386 31.7579C27.5328 31.5966 27.8699 31.3226 28.1071 30.9708C28.3443 30.619 28.471 30.2052 28.471 29.7818C28.4729 29.5015 28.4191 29.2236 28.3126 28.964C28.2062 28.7044 28.0492 28.4683 27.8507 28.269C27.6522 28.0697 27.4161 27.9112 27.1559 27.8027C26.8956 27.6941 26.6163 27.6376 26.334 27.6364L26.3324 27.6443Z" fill="#808080"/>
</svg>
