<svg width="16" height="17" viewBox="0 0 16 17" fill="none" xmlns="http://www.w3.org/2000/svg">
<path d="M4.87139 2.16392H8.12941C8.72594 2.16392 9.2096 1.68028 9.2096 1.08366V1.08019C9.2096 0.483654 8.72594 0 8.12941 0H4.87139C4.27475 0 3.79121 0.483654 3.79121 1.08019V1.08366C3.79121 1.68028 4.27475 2.16392 4.87139 2.16392Z" fill="#4F657A"/>
<path d="M3.82621 11.9101H5.65633C5.7672 11.123 6.04439 10.3895 6.45153 9.74616H3.82621C3.52712 9.74616 3.28469 9.49999 3.28469 9.20091C3.28469 8.90179 3.52714 8.65558 3.82621 8.65558H7.35716C8.33954 7.7415 9.65638 7.18212 11.1041 7.18212C11.7706 7.18212 12.4095 7.30069 13.0007 7.5178V2.72612C13.0007 1.82891 12.3052 1.07325 11.4079 1.07325H10.3002V1.10441C10.3002 2.29719 9.35437 3.23719 8.16151 3.23719H4.9064C3.71356 3.23719 2.71787 2.29725 2.71787 1.10441V1.07325H1.65998C0.762753 1.07325 0 1.82883 0 2.72612V13.5571C0 14.4544 0.762731 15.1473 1.65998 15.1473H6.18294C5.85345 14.4902 5.65154 13.7582 5.61003 12.9834H3.82621C3.52712 12.9834 3.28469 12.7458 3.28469 12.4467C3.28469 12.1476 3.52712 11.9101 3.82621 11.9101ZM3.82621 5.4011H9.24169C9.54081 5.4011 9.78322 5.64727 9.78322 5.94637C9.78322 6.24547 9.54079 6.4917 9.24169 6.4917H3.82621C3.52712 6.4917 3.28469 6.24545 3.28469 5.94637C3.28469 5.64727 3.52712 5.4011 3.82621 5.4011Z" fill="#4F657A"/>
<path d="M11.0714 8.3032C8.66982 8.3032 6.72297 10.25 6.72297 12.6516C6.72297 15.0531 8.66982 17 11.0714 17C13.4729 17 15.4198 15.0531 15.4198 12.6516C15.4198 10.25 13.4729 8.3032 11.0714 8.3032ZM12.8019 14.381C12.5897 14.5933 12.2446 14.5923 12.0348 14.3826L10.7054 13.0532C10.6629 13.0143 10.6266 12.9688 10.598 12.9182C10.5511 12.8356 10.5277 12.7434 10.5279 12.651V9.93544C10.5279 9.63437 10.7691 9.39032 11.0714 9.39032C11.3716 9.39032 11.6149 9.63409 11.6149 9.93544V12.4253L12.8035 13.6139C13.0149 13.8253 13.0157 14.1673 12.8019 14.381Z" fill="#4F657A"/>
</svg>
