<svg width="15" height="15" viewBox="0 0 15 15" fill="none" xmlns="http://www.w3.org/2000/svg">
<path d="M6.4031 0.287356C6.89076 -0.0957854 7.56859 -0.0957854 8.05625 0.287356L13.8452 4.82878C14.5825 5.40709 14.187 6.61399 13.2607 6.61877H1.19748C0.272323 6.61399 -0.12434 5.40709 0.614153 4.82878L6.4031 0.287356ZM7.22909 4.52347C7.46115 4.52347 7.68371 4.42886 7.84781 4.26045C8.0119 4.09205 8.10408 3.86364 8.10408 3.62548C8.10408 3.38732 8.0119 3.15891 7.84781 2.9905C7.68371 2.8221 7.46115 2.72749 7.22909 2.72749C6.99703 2.72749 6.77447 2.8221 6.61038 2.9905C6.44629 3.15891 6.3541 3.38732 6.3541 3.62548C6.3541 3.86364 6.44629 4.09205 6.61038 4.26045C6.77447 4.42886 6.99703 4.52347 7.22909 4.52347ZM1.97914 7.81609V11.408H3.72912V7.81609H1.97914ZM4.89578 7.81609V11.408H6.64576V7.81609H4.89578ZM7.81242 7.81609V11.408H9.5624V7.81609H7.81242ZM10.7291 7.81609V11.408H12.479V7.81609H10.7291ZM0.229156 14.102C0.229156 13.2759 0.882484 12.6054 1.68748 12.6054H12.7707C13.5757 12.6054 14.229 13.2759 14.229 14.102V14.4013C14.229 14.5601 14.1676 14.7124 14.0582 14.8247C13.9488 14.9369 13.8004 15 13.6457 15H0.812485C0.657776 15 0.509405 14.9369 0.400009 14.8247C0.290614 14.7124 0.229156 14.5601 0.229156 14.4013V14.102Z" fill="#4F657A"/>
</svg>
