<svg width="18" height="17" viewBox="0 0 18 17" fill="none" xmlns="http://www.w3.org/2000/svg">
<path fill-rule="evenodd" clip-rule="evenodd" d="M9.00703 0.141602C4.30286 0.141602 0.5 3.9725 0.5 8.71184C0.5 12.5003 2.93663 15.7071 6.31687 16.8421C6.73949 16.9274 6.89429 16.6577 6.89429 16.4308C6.89429 16.2321 6.88036 15.551 6.88036 14.8415C4.51391 15.3524 4.02112 13.8198 4.02112 13.8198C3.64081 12.8266 3.07732 12.5713 3.07732 12.5713C2.30279 12.0463 3.13374 12.0463 3.13374 12.0463C3.99291 12.1031 4.44374 12.926 4.44374 12.926C5.20417 14.2313 6.42953 13.8625 6.9225 13.6354C6.99285 13.082 7.21835 12.6989 7.45778 12.4861C5.57037 12.2875 3.58457 11.5497 3.58457 8.25771C3.58457 7.32123 3.92239 6.55505 4.45767 5.95917C4.37321 5.74638 4.07736 4.86649 4.54229 3.68884C4.54229 3.68884 5.26059 3.46177 6.88019 4.56855C7.5736 4.38095 8.2887 4.28552 9.00703 4.28472C9.72533 4.28472 10.4576 4.38415 11.1337 4.56855C12.7535 3.46177 13.4718 3.68884 13.4718 3.68884C13.9367 4.86649 13.6407 5.74638 13.5562 5.95917C14.1056 6.55505 14.4295 7.32123 14.4295 8.25771C14.4295 11.5497 12.4437 12.2732 10.5422 12.4861C10.8521 12.7557 11.1196 13.2664 11.1196 14.0753C11.1196 15.2245 11.1057 16.1469 11.1057 16.4306C11.1057 16.6576 11.2606 16.9274 11.6831 16.8422C15.0633 15.7069 17.5 12.5003 17.5 8.71184C17.5139 3.9725 13.6971 0.141602 9.00703 0.141602Z" fill="#4F657A"/>
</svg>
