<svg width="17" height="15" viewBox="0 0 17 15" fill="none" xmlns="http://www.w3.org/2000/svg">
<path fill-rule="evenodd" clip-rule="evenodd" d="M14.966 12.1451C14.8113 12.1452 14.6596 12.1879 14.5283 12.2684C14.397 12.3489 14.2913 12.464 14.2232 12.6006L13.6226 13.8014C13.5255 13.9954 13.5107 14.2193 13.5813 14.424C13.6519 14.6288 13.8022 14.7976 13.9992 14.8936C14.0968 14.941 14.2029 14.969 14.3114 14.976C14.42 14.983 14.5289 14.9688 14.6319 14.9344C14.7349 14.8999 14.8299 14.8458 14.9116 14.7751C14.9933 14.7045 15.0599 14.6187 15.1078 14.5226L15.7084 13.3219C15.8055 13.1279 15.8204 12.904 15.7498 12.6992C15.6792 12.4945 15.5289 12.3256 15.3318 12.2297C15.2181 12.1741 15.0929 12.1452 14.966 12.1452V12.1452V12.1451ZM14.1466 4.03655C14.0518 4.03662 13.9578 4.05285 13.8686 4.08449C13.6616 4.15752 13.4926 4.30827 13.3986 4.50365C13.3045 4.69904 13.2931 4.92312 13.3669 5.12675L13.8996 6.59663C13.9354 6.69827 13.9914 6.79192 14.0643 6.87216C14.1371 6.95241 14.2254 7.01766 14.3241 7.06416C14.4228 7.11065 14.5298 7.13745 14.6391 7.14303C14.7484 7.1486 14.8577 7.13282 14.9607 7.09662C15.0637 7.06041 15.1585 7.00449 15.2394 6.93208C15.3203 6.85968 15.3858 6.77222 15.4321 6.67478C15.4785 6.57733 15.5047 6.47183 15.5093 6.36436C15.5139 6.25689 15.4968 6.14959 15.459 6.04865L14.9266 4.57877C14.8693 4.42039 14.7636 4.2833 14.624 4.18628C14.4843 4.08926 14.3176 4.03706 14.1466 4.03682V4.03655ZM15.8397 0.0245221C15.6778 0.0244548 15.5195 0.0709232 15.3841 0.158208C15.2487 0.245493 15.1423 0.369784 15.0778 0.515785L14.4487 1.9482C14.4047 2.0464 14.3809 2.15218 14.3786 2.25945C14.3764 2.36672 14.3957 2.47338 14.4355 2.57328C14.4753 2.67318 14.5348 2.76436 14.6106 2.84158C14.6864 2.9188 14.777 2.98053 14.8771 3.02323C14.9772 3.06593 15.0849 3.08875 15.1941 3.09039C15.3032 3.09203 15.4116 3.07244 15.513 3.03276C15.6144 2.99308 15.7068 2.93409 15.785 2.85918C15.8631 2.78427 15.9254 2.69492 15.9683 2.59625L16.5978 1.16384C16.6527 1.04003 16.6754 0.904758 16.6638 0.770192C16.6523 0.635626 16.6068 0.505999 16.5317 0.392985C16.4565 0.279972 16.3538 0.187123 16.2331 0.122801C16.1123 0.0584793 15.9771 0.0247057 15.8397 0.0245221V0.0245221ZM15.6377 8.15238C15.5048 8.1526 15.374 8.18418 15.2562 8.24445C15.1384 8.30473 15.037 8.39194 14.9606 8.49876C14.8842 8.60557 14.835 8.72887 14.8171 8.85826C14.7993 8.98766 14.8133 9.11938 14.858 9.24234L15.3903 10.7122C15.4265 10.8135 15.4826 10.9067 15.5555 10.9866C15.6284 11.0664 15.7167 11.1314 15.8152 11.1776C15.9138 11.2238 16.0206 11.2504 16.1297 11.2558C16.2387 11.2613 16.3477 11.2455 16.4505 11.2094C16.5533 11.1733 16.6479 11.1175 16.7287 11.0454C16.8095 10.9732 16.875 10.8861 16.9214 10.7889C16.9678 10.6918 16.9942 10.5866 16.9992 10.4794C17.0041 10.3722 16.9874 10.2651 16.95 10.1642L16.4174 8.69433C16.3601 8.536 16.2544 8.39894 16.1149 8.30193C15.9753 8.20493 15.8086 8.15271 15.6377 8.15245V8.15245V8.15238ZM2.76847 0C2.55181 5.55458e-05 2.33991 0.0624325 2.15888 0.179442C1.97784 0.296451 1.8356 0.462979 1.74966 0.658499L0.0913666 4.4327C-0.0203474 4.68689 -0.0299679 4.97324 0.0644385 5.23412L1.90842 10.3235L0.355997 13.4264C0.29149 13.5548 0.253345 13.6945 0.243741 13.8374C0.234137 13.9803 0.253263 14.1237 0.300025 14.2594C0.394466 14.5333 0.595745 14.7592 0.859583 14.8873C1.12342 15.0153 1.42821 15.0351 1.70689 14.9423C1.98557 14.8495 2.21532 14.6516 2.3456 14.3922L4.10538 10.8749C4.17094 10.7436 4.20912 10.6007 4.21768 10.4547C4.22623 10.3087 4.20499 10.1625 4.1552 10.0247L2.30077 4.90533L3.78508 1.52663C3.85842 1.36068 3.88866 1.17941 3.87306 0.999119C3.85746 0.818831 3.79651 0.645183 3.69571 0.493793C3.59491 0.342402 3.45741 0.218019 3.29558 0.131831C3.13375 0.0456426 2.95266 0.000352445 2.76861 3.42298e-05V3.42298e-05L2.76847 0ZM6.94626 4.70148C6.8847 4.70155 6.82378 4.71368 6.76703 4.73714C6.71029 4.7606 6.65887 4.79493 6.61577 4.83813C6.57266 4.88134 6.53874 4.93255 6.51598 4.98877C6.49322 5.045 6.48207 5.10512 6.48319 5.16562L6.5707 10.1543C6.57259 10.2739 6.62223 10.388 6.70891 10.472C6.7956 10.5559 6.91238 10.603 7.03405 10.603C7.11779 10.6029 7.19988 10.5801 7.27137 10.5372L11.6131 7.96832C11.6827 7.92703 11.74 7.86848 11.7794 7.79854C11.8188 7.7286 11.8387 7.64972 11.8373 7.5698C11.8359 7.48988 11.8132 7.41173 11.7714 7.34317C11.7296 7.27461 11.6702 7.21806 11.5991 7.17917L7.16992 4.75933C7.10157 4.72156 7.02452 4.70165 6.94612 4.70148V4.70148H6.94626Z" fill="#4F657A"/>
</svg>
