<svg width="19" height="19" viewBox="0 0 19 19" fill="none" xmlns="http://www.w3.org/2000/svg">
<path d="M9.50094 0.5C4.53106 0.5 0.5 4.52796 0.5 9.49816C0.5 14.4702 4.52917 18.5 9.49905 18.5C11.4145 18.5 13.1731 17.8737 14.6295 16.8524C15.0148 16.498 15.2547 16.4557 15.2547 16.0718L15.2604 15.9965C15.2604 15.5447 14.894 15.1792 14.4425 15.1792C14.2083 15.1792 14.0005 15.2784 13.8531 15.4363C12.6329 16.329 11.1368 16.8598 9.5085 16.8598C5.43399 16.8598 2.13207 13.5592 2.13207 9.48531C2.13207 5.41143 5.43399 2.10898 9.5085 2.10898C13.583 2.10898 16.8849 5.41143 16.8849 9.48531C16.8849 10.6094 16.6261 11.6729 16.1747 12.628C16.1747 12.628 15.9801 12.9953 15.7969 13.5169L15.7912 13.5922C15.7912 14.0441 16.1577 14.4114 16.611 14.4114C16.9794 14.4114 17.2778 14.1635 17.3817 13.8292L17.3855 13.8329C18.0958 12.5471 18.5 11.0686 18.5 9.49633C18.5019 4.5298 14.4708 0.5 9.50094 0.5ZM4.47439 8.52286C4.48573 8.70653 4.56318 8.8902 4.70674 9.0298C4.85219 9.17122 5.0392 9.24653 5.22809 9.25571C5.25643 9.25755 5.28476 9.25755 5.31121 9.25571L13.6397 9.25388C14.0798 9.25388 14.4368 8.9049 14.4368 8.47878C14.4368 8.05082 14.0817 7.70367 13.6397 7.70367L7.13217 7.71286L8.07477 6.78714C8.37512 6.4951 8.37512 6.01939 8.07477 5.72735C7.77442 5.43531 7.28518 5.43531 6.98483 5.72735L4.70485 7.96449C4.56884 8.09673 4.49517 8.26388 4.48195 8.43837L4.47628 8.4402C4.47439 8.4402 4.4725 8.49347 4.47439 8.52286ZM10.8383 13.6933C11.1387 13.9853 11.6279 13.9853 11.9302 13.6933L14.212 11.4598C14.3462 11.3276 14.4217 11.1604 14.4349 10.9878L14.4406 10.9859C14.4406 10.9859 14.4425 10.9308 14.4406 10.9051C14.4293 10.7214 14.3518 10.5396 14.2083 10.4C14.0628 10.2604 13.8758 10.1851 13.6869 10.1741C13.6586 10.1722 13.6302 10.1722 13.6038 10.1741L5.27343 10.1759C4.8333 10.1759 4.47628 10.5212 4.47628 10.9492C4.47628 11.3771 4.83141 11.7224 5.27343 11.7224L11.7828 11.7133L10.8402 12.6408C10.538 12.9292 10.538 13.4012 10.8383 13.6933Z" fill="#4F657A"/>
</svg>
