<svg width="17" height="19" viewBox="0 0 17 19" fill="none" xmlns="http://www.w3.org/2000/svg">
<path d="M16.5776 12.0089C16.4894 11.6986 16.3408 11.4087 16.1405 11.1558C15.9402 10.9029 15.6921 10.6919 15.4102 10.5349C15.2138 10.4253 15.0033 10.3432 14.7845 10.2909V8.55898C14.9949 8.50165 15.1968 8.4169 15.3851 8.30693C15.6874 8.12931 15.9481 7.88907 16.1499 7.60234C16.3516 7.31561 16.4896 6.98904 16.5547 6.64455C16.6198 6.30007 16.6104 5.94564 16.5271 5.60509C16.4439 5.26453 16.2888 4.94573 16.0721 4.6701C15.8555 4.39446 15.5824 4.16838 15.2711 4.00702C14.9599 3.84567 14.6177 3.75278 14.2676 3.7346C13.9175 3.71643 13.5676 3.77338 13.2413 3.90163C12.915 4.02989 12.62 4.22648 12.376 4.47819L10.8673 3.60779C10.9601 3.26984 10.9795 2.91595 10.9243 2.56986C10.8691 2.22378 10.7404 1.89352 10.547 1.60125C10.3536 1.30898 10.1 1.06146 9.80303 0.875301C9.5061 0.689145 9.17278 0.568661 8.82545 0.521936C8.47811 0.475212 8.1248 0.503327 7.78923 0.604396C7.45366 0.705465 7.14359 0.877149 6.87983 1.10792C6.61608 1.3387 6.40474 1.62322 6.26001 1.9424C6.11527 2.26158 6.04049 2.60803 6.04068 2.95849C6.04077 3.1787 6.07077 3.39787 6.12986 3.61L4.49371 4.55189C4.3389 4.40253 4.16551 4.27373 3.97781 4.16865C3.40822 3.852 2.73617 3.77458 2.10951 3.95343C1.48284 4.13228 0.952887 4.55275 0.636233 5.12233C0.319579 5.69192 0.242162 6.36397 0.421012 6.99064C0.599862 7.6173 1.02033 8.14725 1.58992 8.46391C1.78554 8.57317 1.99537 8.65477 2.21342 8.70638V10.4383C1.84794 10.5371 1.5102 10.7189 1.22654 10.9696C0.94289 11.2203 0.720989 11.5332 0.578146 11.8838C0.435303 12.2344 0.375379 12.6133 0.403048 12.9908C0.430716 13.3684 0.54523 13.7345 0.737657 14.0605C0.930085 14.3865 1.19522 14.6637 1.5124 14.8704C1.82957 15.0771 2.19021 15.2078 2.56618 15.2522C2.94215 15.2965 3.3233 15.2535 3.67989 15.1263C4.03648 14.9992 4.35888 14.7914 4.62195 14.5191L6.12986 15.3895C6.02924 15.7543 6.01425 16.1374 6.08604 16.509C6.15783 16.8805 6.31446 17.2305 6.54373 17.5315C6.77299 17.8326 7.06869 18.0766 7.40778 18.2446C7.74686 18.4126 8.12017 18.5 8.49859 18.5C8.877 18.5 9.25031 18.4126 9.58939 18.2446C9.92848 18.0766 10.2242 17.8326 10.4534 17.5315C10.6827 17.2305 10.8393 16.8805 10.9111 16.509C10.9829 16.1374 10.9679 15.7543 10.8673 15.3895L12.5035 14.4454C12.6579 14.5952 12.8314 14.724 13.0194 14.8287C13.3835 15.0324 13.7939 15.139 14.2111 15.1382C14.592 15.1404 14.9681 15.0537 15.3096 14.885C15.6511 14.7163 15.9485 14.4702 16.1782 14.1664C16.4079 13.8626 16.5635 13.5094 16.6327 13.1348C16.702 12.7603 16.6828 12.3747 16.5769 12.0089H16.5776ZM12.7349 6.12024C12.7446 5.90534 12.8039 5.6956 12.9081 5.5074C13.0123 5.3192 13.1586 5.15765 13.3355 5.03537L13.4284 4.97346C13.5881 4.87987 13.7647 4.81865 13.948 4.79329C14.1314 4.76794 14.3179 4.77895 14.497 4.82569C14.6761 4.87244 14.8443 4.954 14.9918 5.06572C15.1394 5.17744 15.2635 5.31714 15.3571 5.47683C15.4507 5.63653 15.512 5.81309 15.5373 5.99645C15.5627 6.1798 15.5517 6.36635 15.5049 6.54545C15.4582 6.72455 15.3766 6.89269 15.2649 7.04027C15.1532 7.18785 15.0135 7.31198 14.8538 7.40557C14.8309 7.41884 14.8081 7.4321 14.7845 7.4439C14.5926 7.54273 14.3805 7.59571 14.1647 7.59867C13.9507 7.60143 13.7389 7.55609 13.5448 7.46601C13.2913 7.34765 13.0789 7.15639 12.9346 6.91667C12.7903 6.67696 12.7208 6.39967 12.7349 6.12024ZM8.49859 1.55082C8.87212 1.55082 9.23036 1.6992 9.49448 1.96333C9.75861 2.22746 9.907 2.5857 9.907 2.95923C9.907 2.99092 9.907 3.02188 9.907 3.0543C9.89264 3.26879 9.82909 3.47709 9.72127 3.66307C9.59797 3.87723 9.4204 4.05511 9.20646 4.1788C8.99252 4.30248 8.74976 4.36761 8.50264 4.36761C8.25552 4.36761 8.01276 4.30248 7.79882 4.1788C7.58488 4.05511 7.40731 3.87723 7.284 3.66307C7.17593 3.47716 7.11213 3.26885 7.09754 3.0543C7.09754 3.02188 7.09312 2.98871 7.09312 2.95923C7.09292 2.58608 7.24082 2.2281 7.50433 1.9639C7.76784 1.69969 8.12543 1.55086 8.49859 1.55008V1.55082ZM2.1014 7.54781C1.9387 7.45857 1.79537 7.33788 1.67973 7.19276C1.56409 7.04764 1.47845 6.88098 1.42777 6.70247H1.43293C1.35685 6.43471 1.36182 6.1504 1.44721 5.88546C1.5326 5.62052 1.69459 5.38683 1.91271 5.21389C2.13084 5.04095 2.39532 4.93653 2.67275 4.9138C2.95018 4.89108 3.22813 4.95108 3.47149 5.08622C3.48917 5.0958 3.50465 5.10686 3.52086 5.11644C3.73173 5.24547 3.9049 5.42775 4.02295 5.64496C4.141 5.86216 4.19977 6.10662 4.19335 6.35375C4.18692 6.60088 4.11553 6.84196 3.98635 7.05273C3.85718 7.26351 3.67477 7.43655 3.45748 7.55445C3.36692 7.60297 3.27159 7.64199 3.173 7.67089C2.85552 7.75979 2.51709 7.73636 2.21489 7.60456C2.17804 7.58687 2.13898 7.56845 2.1014 7.54708V7.54781ZM4.13258 13.4085C4.0281 13.6324 3.86642 13.8248 3.66384 13.9664C3.63363 13.9877 3.60193 14.0091 3.57098 14.0283C3.41129 14.1219 3.23472 14.1831 3.05137 14.2084C2.86801 14.2338 2.68146 14.2228 2.50236 14.1761C2.32326 14.1293 2.15512 14.0477 2.00754 13.936C1.85996 13.8243 1.73583 13.6846 1.64224 13.5249C1.54865 13.3652 1.48743 13.1887 1.46208 13.0053C1.43672 12.8219 1.44773 12.6354 1.49447 12.4563C1.54122 12.2772 1.62278 12.109 1.7345 11.9615C1.84622 11.8139 1.98592 11.6898 2.14562 11.5962L2.21489 11.5586C2.40681 11.4602 2.61905 11.4079 2.83471 11.406H2.85609C2.97645 11.4061 3.09631 11.4214 3.2128 11.4517C3.29591 11.4734 3.37683 11.5028 3.45453 11.5394C3.79224 11.6974 4.05338 11.9831 4.18053 12.3336C4.30767 12.684 4.29043 13.0707 4.13258 13.4085ZM8.49859 17.4495C8.12511 17.4493 7.76699 17.3008 7.5029 17.0367C7.23882 16.7726 7.09037 16.4145 7.09017 16.041C7.08836 16.0091 7.08836 15.9771 7.09017 15.9452C7.10487 15.7309 7.16867 15.5229 7.27663 15.3372C7.39994 15.123 7.57751 14.9452 7.79145 14.8215C8.00539 14.6978 8.24815 14.6327 8.49527 14.6327C8.74239 14.6327 8.98515 14.6978 9.19909 14.8215C9.41303 14.9452 9.5906 15.123 9.7139 15.3372C9.82343 15.5227 9.88828 15.7311 9.90331 15.946C9.90641 15.9778 9.90764 16.0098 9.907 16.0418C9.9068 16.4152 9.75833 16.7732 9.49422 17.0372C9.23012 17.3012 8.87199 17.4495 8.49859 17.4495ZM11.8542 13.3532C11.8561 13.3636 11.8593 13.3738 11.8637 13.3834L10.2519 14.3135C10.023 14.0819 9.75034 13.898 9.44982 13.7725C9.14929 13.6469 8.82685 13.5823 8.50117 13.5823C8.17548 13.5823 7.85304 13.6469 7.55251 13.7725C7.25199 13.898 6.97936 14.0819 6.75041 14.3135L5.23071 13.4387C5.31354 13.1275 5.33425 12.8031 5.29166 12.4839C5.24906 12.1647 5.14401 11.8571 4.98248 11.5785C4.82096 11.3 4.60614 11.056 4.35029 10.8605C4.09445 10.665 3.80259 10.5218 3.49138 10.4391L3.45159 10.4288V8.67911C3.762 8.59079 4.05197 8.44217 4.30494 8.24176C4.5579 8.04135 4.76891 7.79307 4.92591 7.5111C5.08291 7.22913 5.18283 6.91899 5.21995 6.5984C5.25708 6.27781 5.23068 5.95305 5.14227 5.64266L5.13343 5.61244L6.74525 4.68308C7.20159 5.14658 7.82335 5.40984 8.47378 5.41495C9.1242 5.42007 9.75002 5.16662 10.2136 4.71035L10.2416 4.68308L11.7665 5.56233C11.5991 6.19065 11.6882 6.85971 12.0141 7.42236C12.34 7.98502 12.876 8.39519 13.5043 8.56267L13.5441 8.57225V10.3167C12.9174 10.4956 12.3873 10.916 12.0705 11.4855C11.7536 12.055 11.6758 12.7271 11.8542 13.3539V13.3532ZM15.4456 13.3709C15.2636 13.6968 14.9599 13.9374 14.601 14.0401V14.0349C14.4236 14.0858 14.238 14.1011 14.0547 14.0799C13.8715 14.0588 13.6942 14.0017 13.5331 13.9118C13.5161 13.9023 13.4999 13.8912 13.4837 13.8816C13.1816 13.6979 12.9601 13.4067 12.8639 13.0665C12.8422 12.9901 12.8271 12.9119 12.8189 12.8329C12.7836 12.5032 12.8656 12.1716 13.0503 11.8963C13.2351 11.621 13.5109 11.4195 13.8293 11.3272C13.9386 11.2961 14.0512 11.2786 14.1647 11.2748H14.2177C14.4132 11.2759 14.6063 11.3181 14.7845 11.3987C14.8235 11.4163 14.8619 11.4348 14.9002 11.4554C15.2265 11.6373 15.4673 11.9413 15.5696 12.3006C15.6719 12.6599 15.6273 13.0452 15.4456 13.3716V13.3709Z" fill="#4F657A"/>
<path d="M10.5467 6.70689C10.4356 6.7034 10.3255 6.72872 10.2271 6.78038C10.1287 6.83204 10.0453 6.90828 9.98512 7.00169L8.49932 8.94001L8.48164 8.9179L7.01279 7.00169C6.95256 6.90828 6.8692 6.83204 6.77079 6.78038C6.67238 6.72872 6.56228 6.7034 6.45119 6.70689C6.10922 6.70689 5.86601 6.984 5.86601 7.32524V10.9366C5.86601 11.0134 5.88115 11.0895 5.91055 11.1605C5.93996 11.2315 5.98307 11.296 6.0374 11.3503C6.09174 11.4047 6.15625 11.4478 6.22725 11.4772C6.29825 11.5066 6.37434 11.5217 6.45119 11.5217C6.52804 11.5217 6.60413 11.5066 6.67513 11.4772C6.74613 11.4478 6.81064 11.4047 6.86498 11.3503C6.91931 11.296 6.96242 11.2315 6.99183 11.1605C7.02123 11.0895 7.03637 11.0134 7.03637 10.9366V8.93854L8.02543 10.2268C8.07932 10.2966 8.14842 10.3532 8.22748 10.3923C8.30653 10.4314 8.39345 10.4519 8.48164 10.4523H8.51627C8.60448 10.452 8.69143 10.4315 8.7705 10.3924C8.84957 10.3533 8.91866 10.2967 8.97248 10.2268L9.96154 8.93854V10.9336C9.96154 11.0888 10.0232 11.2376 10.1329 11.3474C10.2427 11.4571 10.3915 11.5188 10.5467 11.5188C10.7019 11.5188 10.8508 11.4571 10.9605 11.3474C11.0702 11.2376 11.1319 11.0888 11.1319 10.9336V7.32229C11.1319 6.984 10.8894 6.70689 10.5467 6.70689Z" fill="#4F657A"/>
<path d="M8.49343 11.7134C7.42109 11.7134 6.52268 12.2639 6.52268 12.4629C6.52268 12.5366 6.55953 12.5852 6.63028 12.5852H10.3676C10.4413 12.5852 10.4752 12.5388 10.4752 12.4629C10.4752 12.2661 9.57682 11.7134 8.49343 11.7134Z" fill="#4F657A"/>
</svg>
