<svg width="12" height="13" viewBox="0 0 12 13" fill="none" xmlns="http://www.w3.org/2000/svg">
<path d="M3.28414 3.89996C3.10994 3.89996 2.94287 3.96844 2.81969 4.09033C2.69651 4.21223 2.62731 4.37756 2.62731 4.54995C2.62731 4.72234 2.69651 4.88766 2.81969 5.00956C2.94287 5.13146 3.10994 5.19994 3.28414 5.19994H3.94097C4.11517 5.19994 4.28224 5.13146 4.40542 5.00956C4.5286 4.88766 4.5978 4.72234 4.5978 4.54995C4.5978 4.37756 4.5286 4.21223 4.40542 4.09033C4.28224 3.96844 4.11517 3.89996 3.94097 3.89996H3.28414ZM6.56828 11.6999H1.97048C1.79628 11.6999 1.62922 11.6314 1.50604 11.5095C1.38286 11.3876 1.31366 11.2223 1.31366 11.0499V1.94998C1.31366 1.77759 1.38286 1.61226 1.50604 1.49036C1.62922 1.36847 1.79628 1.29998 1.97048 1.29998H5.25462V3.24996C5.25462 3.76713 5.46223 4.26311 5.83177 4.6288C6.2013 4.9945 6.7025 5.19994 7.22511 5.19994H9.19559V5.89326C9.19559 6.06565 9.26479 6.23097 9.38797 6.35287C9.51115 6.47477 9.67822 6.54325 9.85242 6.54325C10.0266 6.54325 10.1937 6.47477 10.3169 6.35287C10.44 6.23097 10.5092 6.06565 10.5092 5.89326V4.51095C10.5024 4.45124 10.4892 4.39241 10.4698 4.33545V4.27695C10.4383 4.21012 10.3961 4.14868 10.345 4.09495L6.40407 0.194998C6.34978 0.144439 6.2877 0.102751 6.22016 0.0714991C6.19843 0.0677353 6.17621 0.0677353 6.15448 0.0714991C6.09061 0.0377015 6.02197 0.0135991 5.95086 0H1.97048C1.44788 0 0.946679 0.205444 0.577142 0.571135C0.207604 0.936827 0 1.43281 0 1.94998V11.0499C0 11.567 0.207604 12.063 0.577142 12.4287C0.946679 12.7944 1.44788 12.9998 1.97048 12.9998H6.56828C6.74248 12.9998 6.90955 12.9314 7.03273 12.8095C7.15591 12.6876 7.22511 12.5222 7.22511 12.3499C7.22511 12.1775 7.15591 12.0121 7.03273 11.8902C6.90955 11.7683 6.74248 11.6999 6.56828 11.6999ZM6.56828 2.21647L8.26947 3.89996H7.22511C7.05091 3.89996 6.88384 3.83147 6.76066 3.70958C6.63748 3.58768 6.56828 3.42235 6.56828 3.24996V2.21647ZM7.22511 6.49992H3.28414C3.10994 6.49992 2.94287 6.56841 2.81969 6.6903C2.69651 6.8122 2.62731 6.97753 2.62731 7.14992C2.62731 7.32231 2.69651 7.48763 2.81969 7.60953C2.94287 7.73143 3.10994 7.79991 3.28414 7.79991H7.22511C7.39931 7.79991 7.56638 7.73143 7.68956 7.60953C7.81274 7.48763 7.88194 7.32231 7.88194 7.14992C7.88194 6.97753 7.81274 6.8122 7.68956 6.6903C7.56638 6.56841 7.39931 6.49992 7.22511 6.49992ZM11.8057 10.415C11.7446 10.3541 11.672 10.3058 11.592 10.2728C11.5119 10.2398 11.4261 10.2228 11.3394 10.2228C11.2527 10.2228 11.1668 10.2398 11.0868 10.2728C11.0067 10.3058 10.9341 10.3541 10.873 10.415L10.5092 10.7834V8.18989C10.5092 8.01751 10.44 7.85218 10.3169 7.73028C10.1937 7.60838 10.0266 7.5399 9.85242 7.5399C9.67822 7.5399 9.51115 7.60838 9.38797 7.73028C9.26479 7.85218 9.19559 8.01751 9.19559 8.18989V10.7834L8.83183 10.415C8.70815 10.2926 8.54039 10.2239 8.36548 10.2239C8.19057 10.2239 8.02282 10.2926 7.89913 10.415C7.77545 10.5374 7.70596 10.7034 7.70596 10.8765C7.70596 11.0496 7.77545 11.2156 7.89913 11.338L9.38607 12.8114C9.44854 12.8705 9.5222 12.9169 9.60283 12.9479C9.68145 12.9822 9.76646 13 9.85242 13C9.93838 13 10.0234 12.9822 10.102 12.9479C10.1826 12.9169 10.2563 12.8705 10.3188 12.8114L11.8057 11.338C11.8673 11.2776 11.9161 11.2057 11.9495 11.1265C11.9828 11.0473 12 10.9623 12 10.8765C12 10.7907 11.9828 10.7058 11.9495 10.6266C11.9161 10.5474 11.8673 10.4755 11.8057 10.415ZM5.91145 10.3999C6.08565 10.3999 6.25272 10.3314 6.3759 10.2095C6.49908 10.0876 6.56828 9.92228 6.56828 9.74989C6.56828 9.5775 6.49908 9.41217 6.3759 9.29027C6.25272 9.16838 6.08565 9.09989 5.91145 9.09989H3.28414C3.10994 9.09989 2.94287 9.16838 2.81969 9.29027C2.69651 9.41217 2.62731 9.5775 2.62731 9.74989C2.62731 9.92228 2.69651 10.0876 2.81969 10.2095C2.94287 10.3314 3.10994 10.3999 3.28414 10.3999H5.91145Z" fill="#00C2C2"/>
</svg>
