<svg width="15" height="15" viewBox="0 0 15 15" fill="none" xmlns="http://www.w3.org/2000/svg">
<path fill-rule="evenodd" clip-rule="evenodd" d="M0.9375 0C0.68886 0 0.450403 0.105271 0.274587 0.292653C0.098772 0.480036 0 0.734182 0 0.999181C0 1.26418 0.098772 1.51833 0.274587 1.70571C0.450403 1.89309 0.68886 1.99836 0.9375 1.99836V9.99181C0.9375 10.5218 1.13504 11.0301 1.48667 11.4049C1.83831 11.7796 2.31522 11.9902 2.8125 11.9902H5.23688L4.02469 13.2821C3.93515 13.3743 3.86373 13.4845 3.81459 13.6064C3.76546 13.7284 3.7396 13.8595 3.73852 13.9921C3.73743 14.1248 3.76115 14.2564 3.80829 14.3792C3.85543 14.502 3.92504 14.6135 4.01307 14.7073C4.10109 14.8012 4.20577 14.8754 4.32098 14.9256C4.4362 14.9758 4.55965 15.0011 4.68413 15C4.80861 14.9988 4.93163 14.9712 5.046 14.9189C5.16038 14.8665 5.26383 14.7904 5.35031 14.695L7.5 12.4038L9.64969 14.695C9.8265 14.877 10.0633 14.9777 10.3091 14.9754C10.5549 14.9731 10.7901 14.868 10.9639 14.6828C11.1377 14.4975 11.2363 14.2469 11.2384 13.9849C11.2406 13.723 11.1461 13.4706 10.9753 13.2821L9.76312 11.9902H12.1875C12.6848 11.9902 13.1617 11.7796 13.5133 11.4049C13.865 11.0301 14.0625 10.5218 14.0625 9.99181V1.99836C14.3111 1.99836 14.5496 1.89309 14.7254 1.70571C14.9012 1.51833 15 1.26418 15 0.999181C15 0.734182 14.9012 0.480036 14.7254 0.292653C14.5496 0.105271 14.3111 0 14.0625 0H0.9375ZM11.25 3.99673C11.25 3.73173 11.1512 3.47758 10.9754 3.2902C10.7996 3.10281 10.5611 2.99754 10.3125 2.99754C10.0639 2.99754 9.8254 3.10281 9.64959 3.2902C9.47377 3.47758 9.375 3.73173 9.375 3.99673V7.99345C9.375 8.25845 9.47377 8.5126 9.64959 8.69998C9.8254 8.88736 10.0639 8.99263 10.3125 8.99263C10.5611 8.99263 10.7996 8.88736 10.9754 8.69998C11.1512 8.5126 11.25 8.25845 11.25 7.99345V3.99673ZM8.4375 4.99591C8.4375 4.73091 8.33873 4.47676 8.16291 4.28938C7.9871 4.102 7.74864 3.99673 7.5 3.99673C7.25136 3.99673 7.0129 4.102 6.83709 4.28938C6.66127 4.47676 6.5625 4.73091 6.5625 4.99591V7.99345C6.5625 8.25845 6.66127 8.5126 6.83709 8.69998C7.0129 8.88736 7.25136 8.99263 7.5 8.99263C7.74864 8.99263 7.9871 8.88736 8.16291 8.69998C8.33873 8.5126 8.4375 8.25845 8.4375 7.99345V4.99591ZM5.625 5.99509C5.625 5.73009 5.52623 5.47594 5.35041 5.28856C5.1746 5.10118 4.93614 4.99591 4.6875 4.99591C4.43886 4.99591 4.2004 5.10118 4.02459 5.28856C3.84877 5.47594 3.75 5.73009 3.75 5.99509V7.99345C3.75 8.25845 3.84877 8.5126 4.02459 8.69998C4.2004 8.88736 4.43886 8.99263 4.6875 8.99263C4.93614 8.99263 5.1746 8.88736 5.35041 8.69998C5.52623 8.5126 5.625 8.25845 5.625 7.99345V5.99509Z" fill="#4F657A"/>
</svg>
