<svg width="17" height="19" viewBox="0 0 17 19" fill="none" xmlns="http://www.w3.org/2000/svg">
<path d="M15.4113 10.5352C15.2148 10.426 15.0044 10.344 14.7858 10.2916V8.56023C14.9963 8.50307 15.1983 8.41823 15.3865 8.30793C15.689 8.13043 15.9501 7.89022 16.1521 7.60342C16.3541 7.31663 16.4924 6.98991 16.5576 6.64524C16.6228 6.30056 16.6135 5.94592 16.5302 5.60515C16.4469 5.26438 16.2917 4.94539 16.0748 4.66963C15.858 4.39387 15.5847 4.16772 15.2732 4.0064C14.9617 3.84507 14.6193 3.75231 14.2689 3.73435C13.9186 3.71639 13.5685 3.77365 13.2421 3.90227C12.9158 4.0309 12.6207 4.2279 12.3769 4.48005L10.8686 3.60909C10.9616 3.27106 10.9812 2.91704 10.9261 2.57082C10.8709 2.22459 10.7424 1.89417 10.549 1.60175C10.3556 1.30933 10.1018 1.06168 9.8048 0.875427C9.50778 0.689178 9.17433 0.568645 8.82687 0.521921C8.47941 0.475197 8.12597 0.503364 7.7903 0.604532C7.45462 0.7057 7.14448 0.877527 6.8807 1.10847C6.61693 1.33941 6.40562 1.62413 6.26098 1.94349C6.11634 2.26285 6.04171 2.60947 6.0421 2.96005C6.04201 3.18024 6.07183 3.39942 6.13075 3.61157L4.49483 4.5563C4.33997 4.40684 4.1664 4.27807 3.97846 4.1732C3.67173 4.00263 3.33203 3.89974 2.98221 3.87145C2.63239 3.84317 2.28057 3.89015 1.95043 4.00923C1.62029 4.12831 1.31949 4.31673 1.06827 4.56181C0.817048 4.80688 0.62124 5.10293 0.494023 5.43002C0.366806 5.75711 0.311131 6.10766 0.330745 6.45807C0.350359 6.80849 0.444807 7.15063 0.607732 7.46148C0.770658 7.77234 0.998282 8.04468 1.27528 8.26019C1.55228 8.4757 1.87223 8.62937 2.2136 8.71086V10.4429C1.84806 10.5416 1.51027 10.7234 1.22657 10.9741C0.942865 11.2249 0.720932 11.5378 0.578077 11.8884C0.435222 12.2391 0.375309 12.618 0.403011 12.9956C0.430713 13.3732 0.545282 13.7393 0.737779 14.0654C0.930277 14.3914 1.1955 14.6686 1.51275 14.8753C1.83001 15.0819 2.19072 15.2125 2.56676 15.2568C2.94279 15.3011 3.32397 15.2579 3.68057 15.1307C4.03716 15.0034 4.35954 14.7954 4.62253 14.523L6.13075 15.3909C6.03779 15.7288 6.01818 16.0827 6.07324 16.4288C6.1283 16.7749 6.25676 17.1052 6.45 17.3976C6.64323 17.69 6.89677 17.9376 7.1936 18.124C7.49043 18.3103 7.82368 18.4309 8.17098 18.4779C8.51828 18.5248 8.87161 18.4969 9.20724 18.396C9.54287 18.2952 9.85304 18.1237 10.1169 17.8931C10.3808 17.6625 10.5924 17.3781 10.7373 17.059C10.8822 16.7399 10.9572 16.3935 10.9573 16.043C10.957 15.8227 10.9272 15.6033 10.8686 15.3909L12.5046 14.4468C12.6593 14.5964 12.8329 14.7252 13.0209 14.8299C13.3853 15.0333 13.7957 15.14 14.213 15.1398C14.4416 15.1406 14.6692 15.1097 14.8893 15.0481C15.3567 14.9148 15.7741 14.646 16.0887 14.2755C16.4033 13.9051 16.6011 13.4497 16.6569 12.9669C16.7128 12.4841 16.6243 11.9956 16.4025 11.5631C16.1808 11.1306 15.8359 10.7736 15.4113 10.5371V10.5352ZM14.6054 14.037C14.4275 14.0883 14.2413 14.1037 14.0574 14.0824C13.8735 14.0612 13.6957 14.0036 13.5342 13.9131C13.5175 13.9038 13.5014 13.8926 13.4846 13.8827C13.2989 13.7699 13.1421 13.6154 13.0265 13.4314C12.9559 13.3184 12.9015 13.1962 12.8647 13.0681C12.8435 12.9916 12.8285 12.9134 12.8201 12.8344C12.7847 12.5047 12.8666 12.1731 13.0514 11.8977C13.2361 11.6224 13.512 11.4209 13.8305 11.3287C13.9398 11.2978 14.0524 11.2801 14.1659 11.276C14.1832 11.276 14.2006 11.276 14.2186 11.276C14.4142 11.2772 14.6075 11.3195 14.7858 11.4C14.8248 11.4173 14.8633 11.4359 14.9011 11.457C15.1444 11.5925 15.3421 11.7971 15.4692 12.0449C15.5963 12.2927 15.6471 12.5726 15.6151 12.8493C15.5831 13.126 15.4699 13.387 15.2896 13.5992C15.1093 13.8115 14.8701 13.9656 14.6023 14.042L14.6054 14.037ZM9.90842 16.043C9.90842 16.4166 9.76003 16.7748 9.4959 17.0389C9.23177 17.3031 8.87354 17.4515 8.5 17.4515C8.12647 17.4515 7.76824 17.3031 7.50411 17.0389C7.23998 16.7748 7.09159 16.4166 7.09159 16.043C7.09159 16.0108 7.09159 15.981 7.09531 15.9476C7.10963 15.7332 7.17327 15.5251 7.28128 15.3395C7.38912 15.1536 7.53744 14.9945 7.71521 14.8739C7.94722 14.7179 8.22044 14.6346 8.5 14.6346C8.77957 14.6346 9.05279 14.7179 9.2848 14.8739C9.46267 14.9944 9.61101 15.1536 9.71873 15.3395C9.82674 15.5251 9.89038 15.7332 9.9047 15.9476C9.90842 15.978 9.90842 16.0108 9.90842 16.043ZM8.5 13.5858C8.1746 13.5856 7.85243 13.6502 7.55228 13.7759C7.25214 13.9016 6.98005 14.0858 6.75189 14.3179L5.23189 13.4401C5.31563 13.1256 5.33593 12.7977 5.29162 12.4753C5.2473 12.1529 5.13925 11.8426 4.97377 11.5624C4.80829 11.2822 4.58868 11.0378 4.32776 10.8433C4.06684 10.6489 3.76982 10.5083 3.45402 10.4298V8.68173C3.76452 8.59337 4.05457 8.4447 4.30758 8.2442C4.5606 8.04371 4.77164 7.79532 4.92863 7.51324C5.08561 7.23116 5.18548 6.9209 5.22252 6.60021C5.25956 6.27951 5.23304 5.95466 5.14449 5.64422L5.13519 5.61385L6.74693 4.684C6.97519 4.91588 7.2473 5.10004 7.54742 5.22574C7.84754 5.35144 8.16967 5.41618 8.49505 5.41618C8.82043 5.41618 9.14256 5.35144 9.44267 5.22574C9.74279 5.10004 10.0149 4.91588 10.2432 4.684L11.7681 5.56363C11.6844 5.87808 11.6641 6.20605 11.7084 6.52843C11.7527 6.8508 11.8608 7.16113 12.0262 7.44131C12.1917 7.7215 12.4113 7.96594 12.6722 8.16039C12.9332 8.35483 13.2302 8.49539 13.546 8.57387V10.3183C13.2355 10.4067 12.9455 10.5554 12.6926 10.7559C12.4396 10.9564 12.2286 11.2048 12.0716 11.4869C11.9146 11.7689 11.8148 12.0792 11.7777 12.3998C11.7406 12.7205 11.7671 13.0453 11.8555 13.3558C11.8555 13.3657 11.8617 13.3756 11.8648 13.3861L10.2531 14.316C10.0242 14.0836 9.75111 13.8992 9.44995 13.7738C9.14879 13.6484 8.82561 13.5845 8.49938 13.5858H8.5ZM3.66479 13.9658C3.63441 13.9868 3.6028 14.0079 3.57242 14.0277C3.41291 14.1214 3.23651 14.1826 3.05331 14.2081C2.87011 14.2335 2.6837 14.2227 2.50471 14.1761C2.32571 14.1295 2.15765 14.0481 2.01012 13.9365C1.86258 13.825 1.73846 13.6855 1.64484 13.5259C1.55123 13.3664 1.48994 13.19 1.4645 13.0068C1.43905 12.8236 1.44994 12.6372 1.49653 12.4582C1.54313 12.2792 1.62453 12.1112 1.73608 11.9636C1.84762 11.8161 1.98714 11.692 2.14665 11.5984C2.16897 11.5853 2.19253 11.5729 2.21608 11.5605C2.40792 11.4615 2.6201 11.4082 2.83598 11.405H2.85706C2.97755 11.4049 3.09755 11.4203 3.21412 11.4508C3.29712 11.4728 3.37803 11.502 3.45588 11.5382C3.67969 11.643 3.87197 11.8048 4.01341 12.0075C4.15485 12.2101 4.24046 12.4464 4.26163 12.6926C4.2828 12.9388 4.23879 13.1863 4.13402 13.4101C4.02926 13.6339 3.86742 13.8262 3.66479 13.9676V13.9658ZM1.43315 6.70363C1.35695 6.43576 1.36187 6.15131 1.4473 5.88624C1.53273 5.62116 1.69483 5.38737 1.91311 5.2144C2.13139 5.04144 2.39605 4.93707 2.67363 4.91449C2.95121 4.89191 3.22926 4.95214 3.47262 5.08755C3.48997 5.09685 3.50547 5.10801 3.52221 5.11793C3.7066 5.22924 3.86261 5.38188 3.97793 5.56379C4.09325 5.7457 4.16473 5.95192 4.18674 6.16618C4.2174 6.44402 4.16446 6.72468 4.0347 6.97227C3.90495 7.21985 3.70427 7.4231 3.45836 7.55599C3.36786 7.6047 3.27249 7.64376 3.17383 7.67253C2.85716 7.7605 2.51987 7.73686 2.21856 7.60558C2.17951 7.58823 2.14045 7.56963 2.10264 7.54855C1.93977 7.45952 1.79626 7.33896 1.68047 7.1939C1.56467 7.04884 1.47891 6.88217 1.42819 6.70363H1.43315ZM7.09097 2.96005C7.09097 2.58644 7.23939 2.22812 7.50358 1.96394C7.76776 1.69975 8.12608 1.55133 8.49969 1.55133C8.87331 1.55133 9.23162 1.69975 9.49581 1.96394C9.76 2.22812 9.90842 2.58644 9.90842 2.96005C9.90842 2.99167 9.90842 3.02204 9.90532 3.0549C9.8911 3.26944 9.82745 3.47778 9.71935 3.66364C9.61178 3.84948 9.4634 4.00845 9.28542 4.12857C9.05357 4.28495 8.78028 4.3685 8.50062 4.3685C8.22096 4.3685 7.94768 4.28495 7.71583 4.12857C7.53795 4.00834 7.38959 3.84939 7.2819 3.66364C7.1738 3.47778 7.11015 3.26944 7.09593 3.0549C7.09283 3.02204 7.09097 2.98919 7.09097 2.96005ZM13.3371 5.03672C13.3668 5.01626 13.3991 4.99519 13.4294 4.97473C13.589 4.88111 13.7654 4.81983 13.9486 4.79438C14.1318 4.76893 14.3182 4.77982 14.4972 4.82642C14.6762 4.87302 14.8442 4.95441 14.9918 5.06596C15.1393 5.17751 15.2634 5.31702 15.357 5.47654C15.4506 5.63605 15.5119 5.81245 15.5374 5.99565C15.5628 6.17884 15.5519 6.36526 15.5053 6.54425C15.4587 6.72325 15.3773 6.89131 15.2658 7.03884C15.1542 7.18638 15.0147 7.3105 14.8552 7.40412C14.8323 7.41713 14.8093 7.43015 14.7858 7.44193C14.5939 7.54075 14.3817 7.5938 14.1659 7.5969C13.9519 7.59976 13.74 7.55442 13.546 7.46425C13.2929 7.3461 13.0808 7.15533 12.9365 6.91622C12.7922 6.67711 12.7223 6.40049 12.7358 6.12154C12.7407 6.02529 12.7553 5.92976 12.7792 5.83639C12.8656 5.51266 13.0631 5.22961 13.3371 5.03672Z" fill="#4F657A"/>
</svg>
