<svg width="18" height="18" viewBox="0 0 18 18" fill="none" xmlns="http://www.w3.org/2000/svg">
<path d="M16.6482 12.15H1.35V16.65H16.6482V12.15ZM17.95 11.2247L17.9695 11.2802L17.9903 11.3711L17.9983 11.4598V17.325C17.9983 17.6667 17.7443 17.9492 17.4149 17.9939L17.3233 18H0.675C0.33327 18 0.050859 17.746 0.006165 17.4166L0 17.325V11.4755L0.0016561 11.4279L0.0114391 11.351C0.0205651 11.3026 0.0345689 11.2565 0.0530459 11.2128L2.53641 5.79603C2.63265 5.58613 2.8282 5.44215 3.05237 5.40943L3.15 5.40235L5.43583 5.40165L4.7258 6.63486L4.66453 6.75165L3.5829 6.75181L1.7262 10.7998H16.263L14.4385 6.88845L15.2147 5.54088C15.2746 5.58666 15.3271 5.64262 15.3694 5.707L15.4167 5.79198L17.95 11.2247ZM10.2287 0.0500965L10.3109 0.0905695L14.9802 2.79338C15.2756 2.96435 15.393 3.3257 15.2672 3.63356L15.2268 3.71602L12.7008 8.10091L13.725 8.10145C14.0978 8.10145 14.4 8.40367 14.4 8.77645C14.4 9.11818 14.146 9.40059 13.8166 9.44532L13.725 9.45144L11.9232 9.4509L11.9224 9.4536H8.25218L8.24939 9.4509L4.275 9.45144C3.90221 9.45144 3.6 9.14923 3.6 8.77645C3.6 8.43472 3.85393 8.1523 4.1834 8.10766L4.275 8.10145L5.9157 8.10091L5.7523 8.00668C5.45694 7.83568 5.33956 7.47433 5.46534 7.16645L5.50572 7.084L9.39068 0.337835C9.56114 0.0417085 9.92159 -0.0759754 10.2287 0.0500965ZM10.2203 1.59777L7.00902 7.17408L8.60939 8.10091H11.1447L13.7232 3.62537L10.2203 1.59777Z" fill="#4F657A"/>
</svg>
