<svg width="17" height="15" viewBox="0 0 17 15" fill="none" xmlns="http://www.w3.org/2000/svg">
<path d="M14.0269 1.37151L13.4743 0.666028C13.434 0.619562 13.4056 0.56391 13.3918 0.50395C13.378 0.443989 13.379 0.38155 13.3949 0.322104C13.489 0.0281527 13.8271 0.0634269 14.0593 0.0781245C14.7236 0.128096 16.2933 0.139854 16.6343 0.154552C16.6896 0.154813 16.7442 0.167578 16.794 0.191894C16.8437 0.216209 16.8873 0.251447 16.9215 0.294975C16.9557 0.338503 16.9796 0.389196 16.9915 0.443268C17.0033 0.497339 17.0028 0.553391 16.99 0.607237C16.9194 0.9541 16.602 2.61787 16.4873 3.2528C16.4462 3.47327 16.3815 3.75546 16.1052 3.77604C16.0434 3.77887 15.982 3.76607 15.9265 3.73884C15.871 3.71161 15.8233 3.67082 15.7877 3.62024L15.2351 2.91476L15.0117 2.62081L12.2956 4.67847V4.7255C12.2956 4.94206 12.2529 5.1565 12.17 5.35657C12.0872 5.55664 11.9657 5.73844 11.8126 5.89157C11.6594 6.0447 11.4776 6.16617 11.2776 6.24904C11.0775 6.33191 10.8631 6.37457 10.6465 6.37457C10.4299 6.37457 10.2155 6.33191 10.0154 6.24904C9.81535 6.16617 9.63356 6.0447 9.48043 5.89157C9.3273 5.73844 9.20583 5.55664 9.12296 5.35657C9.04008 5.1565 8.99743 4.94206 8.99743 4.7255C8.99743 4.69023 8.99743 4.65201 8.99743 4.61674L7.0838 3.23516C6.7883 3.43981 6.43412 3.5425 6.07498 3.52765C5.71584 3.51279 5.37134 3.38121 5.09375 3.15286L3.23892 4.4727C3.33065 4.80571 3.31551 5.15912 3.19561 5.48306C3.07572 5.807 2.85714 6.08511 2.5707 6.27815C2.28427 6.4712 1.94445 6.56943 1.59919 6.55898C1.25394 6.54853 0.920676 6.42994 0.646438 6.21993C0.372201 6.00992 0.170832 5.7191 0.0707454 5.3885C-0.0293412 5.0579 -0.0230915 4.70423 0.0886122 4.37737C0.200316 4.05052 0.411834 3.76699 0.69332 3.5668C0.974805 3.36661 1.31205 3.25986 1.65746 3.26162C1.88733 3.2612 2.1147 3.30928 2.32473 3.40272L4.50585 1.84771C4.51208 1.41035 4.69181 0.993383 5.00548 0.688533C5.31915 0.383683 5.74107 0.215924 6.17843 0.222161C6.61579 0.228398 7.03276 0.40812 7.33761 0.72179C7.64246 1.03546 7.81022 1.45738 7.80398 1.89475V2.00351L9.71761 3.38508C10.0004 3.18858 10.3378 3.08572 10.6821 3.091C11.0264 3.09627 11.3604 3.20941 11.6371 3.41448L14.1416 1.50379L14.0358 1.37151H14.0269ZM14.0034 5.62205H16.2786C16.3415 5.62281 16.4016 5.64814 16.4461 5.69263C16.4906 5.73712 16.5159 5.79724 16.5167 5.86015V14.6934C16.5159 14.7563 16.4906 14.8164 16.4461 14.8609C16.4016 14.9054 16.3415 14.9307 16.2786 14.9315H14.0034C13.9403 14.9315 13.8797 14.9064 13.8351 14.8618C13.7904 14.8171 13.7653 14.7565 13.7653 14.6934V5.87485C13.7661 5.81194 13.7914 5.75182 13.8359 5.70733C13.8804 5.66284 13.9405 5.63751 14.0034 5.63675V5.62205ZM9.50597 8.64975H11.7812C11.8124 8.64975 11.8434 8.65591 11.8723 8.66788C11.9012 8.67984 11.9274 8.69738 11.9495 8.71949C11.9716 8.7416 11.9892 8.76785 12.0011 8.79674C12.0131 8.82562 12.0193 8.85659 12.0193 8.88785V14.6934C12.0193 14.7565 11.9942 14.8171 11.9495 14.8618C11.9049 14.9064 11.8443 14.9315 11.7812 14.9315H9.51184C9.4487 14.9315 9.38813 14.9064 9.34348 14.8618C9.29883 14.8171 9.27374 14.7565 9.27374 14.6934V8.88785C9.27374 8.85659 9.2799 8.82562 9.29187 8.79674C9.30383 8.76785 9.32137 8.7416 9.34348 8.71949C9.36559 8.69738 9.39184 8.67984 9.42073 8.66788C9.44961 8.65591 9.48058 8.64975 9.51184 8.64975H9.50597ZM5.0085 5.62205H7.28075C7.31475 5.61945 7.3489 5.62419 7.38091 5.63593C7.41291 5.64768 7.44203 5.66616 7.46627 5.69013C7.49052 5.7141 7.50934 5.74299 7.52145 5.77486C7.53356 5.80673 7.53869 5.84083 7.53649 5.87485V14.6934C7.53649 14.7565 7.5114 14.8171 7.46675 14.8618C7.4221 14.9064 7.36154 14.9315 7.29839 14.9315H5.01438C4.98312 14.9315 4.95215 14.9253 4.92327 14.9134C4.89438 14.9014 4.86813 14.8839 4.84602 14.8618C4.82391 14.8397 4.80637 14.8134 4.79441 14.7845C4.78244 14.7556 4.77628 14.7247 4.77628 14.6934V5.87485C4.77705 5.81194 4.80238 5.75182 4.84686 5.70733C4.89135 5.66284 4.95147 5.63751 5.01438 5.63675L5.0085 5.62205ZM0.511044 9.14947H2.78329C2.84644 9.14947 2.907 9.17456 2.95165 9.21921C2.99631 9.26386 3.02139 9.32442 3.02139 9.38757V14.6934C3.02139 14.7565 2.99631 14.8171 2.95165 14.8618C2.907 14.9064 2.84644 14.9315 2.78329 14.9315H0.516923C0.453775 14.9315 0.393213 14.9064 0.34856 14.8618C0.303908 14.8171 0.278822 14.7565 0.278822 14.6934V9.37581C0.278822 9.31267 0.303908 9.2521 0.34856 9.20745C0.393213 9.1628 0.453775 9.13771 0.516923 9.13771L0.511044 9.14947Z" fill="#4F657A"/>
</svg>
