<svg width="15" height="15" viewBox="0 0 15 15" fill="none" xmlns="http://www.w3.org/2000/svg">
<path d="M6.40319 0.287356C6.89085 -0.0957854 7.56868 -0.0957854 8.05634 0.287356L13.8453 4.82878C14.5826 5.40709 14.1871 6.61399 13.2608 6.61877H1.19757C0.272414 6.61399 -0.124249 5.40709 0.614244 4.82878L6.40319 0.287356ZM7.22918 4.52347C7.46125 4.52347 7.6838 4.42886 7.8479 4.26045C8.01199 4.09205 8.10418 3.86364 8.10418 3.62548C8.10418 3.38732 8.01199 3.15891 7.8479 2.9905C7.6838 2.8221 7.46125 2.72749 7.22918 2.72749C6.99712 2.72749 6.77456 2.8221 6.61047 2.9905C6.44638 3.15891 6.35419 3.38732 6.35419 3.62548C6.35419 3.86364 6.44638 4.09205 6.61047 4.26045C6.77456 4.42886 6.99712 4.52347 7.22918 4.52347ZM1.97923 7.81609V11.408H3.72922V7.81609H1.97923ZM4.89587 7.81609V11.408H6.64586V7.81609H4.89587ZM7.81251 7.81609V11.408H9.5625V7.81609H7.81251ZM10.7292 7.81609V11.408H12.4791V7.81609H10.7292ZM0.229248 14.102C0.229248 13.2759 0.882575 12.6054 1.68757 12.6054H12.7708C13.5758 12.6054 14.2291 13.2759 14.2291 14.102V14.4013C14.2291 14.5601 14.1677 14.7124 14.0583 14.8247C13.9489 14.9369 13.8005 15 13.6458 15H0.812576C0.657868 15 0.509496 14.9369 0.400101 14.8247C0.290706 14.7124 0.229248 14.5601 0.229248 14.4013V14.102Z" fill="#4F657A"/>
</svg>
