<svg width="18" height="16" viewBox="0 0 18 16" fill="none" xmlns="http://www.w3.org/2000/svg">
<path d="M15.833 0.799072H2.16704C1.59249 0.799671 1.04164 1.02866 0.63537 1.43578C0.229101 1.84291 0.000597092 2.39492 0 2.97068V13.0292C0.000597092 13.6049 0.229101 14.1569 0.63537 14.5641C1.04164 14.9712 1.59249 15.2002 2.16704 15.2008H15.833C16.4075 15.2002 16.9584 14.9712 17.3646 14.5641C17.7709 14.1569 17.9994 13.6049 18 13.0292V2.97068C17.9994 2.39492 17.7709 1.84291 17.3646 1.43578C16.9584 1.02866 16.4075 0.799671 15.833 0.799072ZM16.2649 13.0275C16.2634 13.1419 16.2175 13.2512 16.1368 13.3321C16.0561 13.4131 15.9471 13.4593 15.833 13.4609H2.16704C2.05278 13.4594 1.94362 13.4133 1.86283 13.3323C1.78203 13.2513 1.73599 13.142 1.73453 13.0275V2.96899C1.73614 2.85454 1.78222 2.74523 1.86298 2.66429C1.94375 2.58336 2.05283 2.53718 2.16704 2.53557H15.833C15.9471 2.53718 16.0561 2.58338 16.1368 2.66433C16.2175 2.74528 16.2634 2.85459 16.2649 2.96899V13.0275Z" fill="#4F657A"/>
<path d="M13.9625 7.20824H7.23474C7.04032 7.20824 6.85386 7.28564 6.71639 7.4234C6.57891 7.56117 6.50168 7.74802 6.50168 7.94285C6.50168 8.13768 6.57891 8.32453 6.71639 8.46229C6.85386 8.60006 7.04032 8.67746 7.23474 8.67746H13.9625C14.157 8.67746 14.3434 8.60006 14.4809 8.46229C14.6184 8.32453 14.6956 8.13768 14.6956 7.94285C14.6956 7.74802 14.6184 7.56117 14.4809 7.4234C14.3434 7.28564 14.157 7.20824 13.9625 7.20824Z" fill="#4F657A"/>
<path d="M3.88071 5.44688H9.23374C9.42816 5.44688 9.61461 5.36948 9.75209 5.23172C9.88956 5.09395 9.9668 4.9071 9.9668 4.71227C9.9668 4.51744 9.88956 4.33059 9.75209 4.19282C9.61461 4.05506 9.42816 3.97766 9.23374 3.97766H3.88071C3.68629 3.97766 3.49983 4.05506 3.36236 4.19282C3.22488 4.33059 3.14765 4.51744 3.14765 4.71227C3.14765 4.9071 3.22488 5.09395 3.36236 5.23172C3.49983 5.36948 3.68629 5.44688 3.88071 5.44688Z" fill="#4F657A"/>
<path d="M13.9625 10.4597H7.23474C7.04032 10.4597 6.85386 10.5371 6.71639 10.6749C6.57891 10.8127 6.50168 10.9995 6.50168 11.1943C6.50168 11.3892 6.57891 11.576 6.71639 11.7138C6.85386 11.8515 7.04032 11.9289 7.23474 11.9289H13.9625C14.157 11.9289 14.3434 11.8515 14.4809 11.7138C14.6184 11.576 14.6956 11.3892 14.6956 11.1943C14.6956 10.9995 14.6184 10.8127 14.4809 10.6749C14.3434 10.5371 14.157 10.4597 13.9625 10.4597Z" fill="#4F657A"/>
<path d="M4.52016 7.20824H3.88071C3.68629 7.20824 3.49983 7.28564 3.36236 7.4234C3.22488 7.56117 3.14765 7.74802 3.14765 7.94285C3.14765 8.13768 3.22488 8.32453 3.36236 8.46229C3.49983 8.60006 3.68629 8.67746 3.88071 8.67746H4.52016C4.71458 8.67746 4.90104 8.60006 5.03851 8.46229C5.17599 8.32453 5.25322 8.13768 5.25322 7.94285C5.25322 7.74802 5.17599 7.56117 5.03851 7.4234C4.90104 7.28564 4.71458 7.20824 4.52016 7.20824Z" fill="#4F657A"/>
<path d="M4.52016 10.4597H3.88071C3.68629 10.4597 3.49983 10.5371 3.36236 10.6749C3.22488 10.8127 3.14765 10.9995 3.14765 11.1943C3.14765 11.3892 3.22488 11.576 3.36236 11.7138C3.49983 11.8515 3.68629 11.9289 3.88071 11.9289H4.52016C4.71458 11.9289 4.90104 11.8515 5.03851 11.7138C5.17599 11.576 5.25322 11.3892 5.25322 11.1943C5.25322 10.9995 5.17599 10.8127 5.03851 10.6749C4.90104 10.5371 4.71458 10.4597 4.52016 10.4597Z" fill="#4F657A"/>
</svg>
