<svg width="16" height="16" viewBox="0 0 16 16" fill="none" xmlns="http://www.w3.org/2000/svg">
<path fill-rule="evenodd" clip-rule="evenodd" d="M1.4375 0.5C1.18886 0.5 0.950403 0.605271 0.774587 0.792653C0.598772 0.980036 0.5 1.23418 0.5 1.49918C0.5 1.76418 0.598772 2.01833 0.774587 2.20571C0.950403 2.39309 1.18886 2.49836 1.4375 2.49836V10.4918C1.4375 11.0218 1.63504 11.5301 1.98667 11.9049C2.33831 12.2796 2.81522 12.4902 3.3125 12.4902H5.73688L4.52469 13.7821C4.43515 13.8743 4.36373 13.9845 4.31459 14.1064C4.26546 14.2284 4.2396 14.3595 4.23852 14.4921C4.23743 14.6248 4.26115 14.7564 4.30829 14.8792C4.35543 15.002 4.42504 15.1135 4.51307 15.2073C4.60109 15.3012 4.70577 15.3754 4.82098 15.4256C4.9362 15.4758 5.05965 15.5011 5.18413 15.5C5.30861 15.4988 5.43163 15.4712 5.546 15.4189C5.66038 15.3665 5.76383 15.2904 5.85031 15.195L8 12.9038L10.1497 15.195C10.3265 15.377 10.5633 15.4777 10.8091 15.4754C11.0549 15.4731 11.2901 15.368 11.4639 15.1828C11.6377 14.9975 11.7363 14.7469 11.7384 14.4849C11.7406 14.223 11.6461 13.9706 11.4753 13.7821L10.2631 12.4902H12.6875C13.1848 12.4902 13.6617 12.2796 14.0133 11.9049C14.365 11.5301 14.5625 11.0218 14.5625 10.4918V2.49836C14.8111 2.49836 15.0496 2.39309 15.2254 2.20571C15.4012 2.01833 15.5 1.76418 15.5 1.49918C15.5 1.23418 15.4012 0.980036 15.2254 0.792653C15.0496 0.605271 14.8111 0.5 14.5625 0.5H1.4375ZM11.75 4.49673C11.75 4.23173 11.6512 3.97758 11.4754 3.7902C11.2996 3.60281 11.0611 3.49754 10.8125 3.49754C10.5639 3.49754 10.3254 3.60281 10.1496 3.7902C9.97377 3.97758 9.875 4.23173 9.875 4.49673V8.49345C9.875 8.75845 9.97377 9.0126 10.1496 9.19998C10.3254 9.38736 10.5639 9.49263 10.8125 9.49263C11.0611 9.49263 11.2996 9.38736 11.4754 9.19998C11.6512 9.0126 11.75 8.75845 11.75 8.49345V4.49673ZM8.9375 5.49591C8.9375 5.23091 8.83873 4.97676 8.66291 4.78938C8.4871 4.602 8.24864 4.49673 8 4.49673C7.75136 4.49673 7.5129 4.602 7.33709 4.78938C7.16127 4.97676 7.0625 5.23091 7.0625 5.49591V8.49345C7.0625 8.75845 7.16127 9.0126 7.33709 9.19998C7.5129 9.38736 7.75136 9.49263 8 9.49263C8.24864 9.49263 8.4871 9.38736 8.66291 9.19998C8.83873 9.0126 8.9375 8.75845 8.9375 8.49345V5.49591ZM6.125 6.49509C6.125 6.23009 6.02623 5.97594 5.85041 5.78856C5.6746 5.60118 5.43614 5.49591 5.1875 5.49591C4.93886 5.49591 4.7004 5.60118 4.52459 5.78856C4.34877 5.97594 4.25 6.23009 4.25 6.49509V8.49345C4.25 8.75845 4.34877 9.0126 4.52459 9.19998C4.7004 9.38736 4.93886 9.49263 5.1875 9.49263C5.43614 9.49263 5.6746 9.38736 5.85041 9.19998C6.02623 9.0126 6.125 8.75845 6.125 8.49345V6.49509Z" fill="#4F657A"/>
</svg>
