<svg width="15" height="15" viewBox="0 0 15 15" fill="none" xmlns="http://www.w3.org/2000/svg">
<path fill-rule="evenodd" clip-rule="evenodd" d="M13.1497 12.1496C12.8678 12.2539 12.5697 12.3075 12.2691 12.3079C11.5521 12.3081 10.8604 11.9991 10.3697 11.4267C10.3633 11.4191 9.73217 10.6789 8.8536 9.65401C8.81896 9.61281 8.78656 9.56979 8.75654 9.52512C8.56542 9.26751 8.48158 8.94584 8.52266 8.62772C8.56374 8.30959 8.72653 8.01978 8.97682 7.81917C9.22711 7.61856 9.54542 7.52277 9.86486 7.55194C10.1843 7.58111 10.48 7.73297 10.6898 7.97559C10.7042 7.98874 10.7177 8.00189 10.7303 8.01469L10.736 8.02092C11.38 8.76973 11.836 9.30832 11.8407 9.31369C11.9153 9.40106 11.9833 9.44553 12.0423 9.44553C12.0811 9.44536 12.1195 9.43779 12.1554 9.42321C12.2847 9.37182 12.294 9.27995 12.293 9.16507L12.2928 9.14638V3.16162L12.293 3.14294C12.294 3.02806 12.2847 2.93618 12.1561 2.88532C12.1198 2.87036 12.081 2.8626 12.0417 2.86248C11.9833 2.86248 11.9153 2.90694 11.8404 2.99466L9.09928 6.20029C9.09373 6.21549 9.08546 6.22956 9.07488 6.24181L4.63048 11.4267C4.13998 11.9989 3.44791 12.3079 2.73111 12.3079C2.43052 12.3075 2.13238 12.2539 1.85047 12.1496C0.852346 11.7823 0.20752 10.8596 0.20752 9.79882V2.50918C0.20752 1.44842 0.852346 0.525569 1.85047 0.158431C2.8479 -0.20888 3.93911 0.0748612 4.63048 0.881284L7.5001 4.22895L10.3697 0.881284C11.0611 0.0748612 12.1523 -0.20888 13.1497 0.158431C14.1479 0.525569 14.7927 1.44842 14.7927 2.50918V9.79882C14.7927 10.8597 14.1479 11.7824 13.1497 12.1496ZM3.16002 2.99484C3.13199 2.96214 3.04653 2.86248 2.95794 2.86248C2.91926 2.86263 2.88096 2.8702 2.84514 2.88479C2.71555 2.93618 2.7062 3.02806 2.70724 3.14294V9.16507C2.7062 9.27995 2.71555 9.37182 2.8441 9.42286C2.88043 9.43762 2.91924 9.44531 2.95846 9.44553C3.04652 9.44553 3.13199 9.34587 3.16002 9.31299L5.86148 6.15409L3.16002 2.99484ZM7.47968 12.6975C11.1448 12.6975 14.1835 14.1564 14.1835 14.6768C14.1835 14.8782 14.061 15 13.8193 15H1.18073C0.940411 15 0.816536 14.8804 0.816536 14.6768C0.816536 14.1515 3.85467 12.6975 7.47968 12.6975Z" fill="#4F657A"/>
</svg>
