<svg width="14" height="15" viewBox="0 0 14 15" fill="none" xmlns="http://www.w3.org/2000/svg">
<path d="M6.17394 0.287356C6.66161 -0.0957854 7.33943 -0.0957854 7.82709 0.287356L13.616 4.82878C14.3534 5.40709 13.9579 6.61399 13.0315 6.61877H0.968324C0.0431662 6.61399 -0.353497 5.40709 0.384996 4.82878L6.17394 0.287356ZM6.99994 4.52347C7.232 4.52347 7.45456 4.42886 7.61865 4.26045C7.78274 4.09205 7.87493 3.86364 7.87493 3.62548C7.87493 3.38732 7.78274 3.15891 7.61865 2.9905C7.45456 2.8221 7.232 2.72749 6.99994 2.72749C6.76787 2.72749 6.54532 2.8221 6.38122 2.9905C6.21713 3.15891 6.12494 3.38732 6.12494 3.62548C6.12494 3.86364 6.21713 4.09205 6.38122 4.26045C6.54532 4.42886 6.76787 4.52347 6.99994 4.52347ZM1.74998 7.81609V11.408H3.49997V7.81609H1.74998ZM4.66662 7.81609V11.408H6.41661V7.81609H4.66662ZM7.58326 7.81609V11.408H9.33325V7.81609H7.58326ZM10.4999 7.81609V11.408H12.2499V7.81609H10.4999ZM0 14.102C0 13.2759 0.653327 12.6054 1.45832 12.6054H12.5416C13.3465 12.6054 13.9999 13.2759 13.9999 14.102V14.4013C13.9999 14.5601 13.9384 14.7124 13.829 14.8247C13.7196 14.9369 13.5713 15 13.4165 15H0.583328C0.42862 15 0.280248 14.9369 0.170853 14.8247C0.0614577 14.7124 0 14.5601 0 14.4013V14.102Z" fill="#4F657A"/>
</svg>
