<svg width="17" height="15" viewBox="0 0 17 15" fill="none" xmlns="http://www.w3.org/2000/svg">
<path fill-rule="evenodd" clip-rule="evenodd" d="M1.6478 12.1434C1.49301 12.1434 1.34133 12.1861 1.20999 12.2666C1.07866 12.3472 0.972916 12.4622 0.904777 12.5988L0.304009 13.7994C0.254977 13.8954 0.225743 13.9999 0.217989 14.107C0.210236 14.2141 0.224116 14.3216 0.25883 14.4234C0.293545 14.5252 0.34841 14.6193 0.420264 14.7002C0.492118 14.7811 0.579543 14.8472 0.677507 14.8947C0.775472 14.9423 0.882043 14.9703 0.991081 14.9773C1.10012 14.9842 1.20947 14.9698 1.31285 14.9351C1.41622 14.9003 1.51158 14.8458 1.59343 14.7746C1.67527 14.7035 1.74199 14.6172 1.78974 14.5206L2.39058 13.32C2.4529 13.1958 2.48201 13.058 2.47515 12.9196C2.4683 12.7813 2.42572 12.6469 2.35141 12.5292C2.2771 12.4115 2.17352 12.3143 2.05042 12.2468C1.92733 12.1793 1.78877 12.1437 1.6478 12.1434ZM0.828282 4.03596C0.733414 4.03603 0.639277 4.05224 0.550047 4.0839C0.343002 4.15688 0.173881 4.3076 0.0797979 4.50297C-0.0142847 4.69834 -0.0256433 4.92241 0.0482157 5.126L0.580957 6.59568C0.617212 6.69678 0.673434 6.78985 0.746396 6.86954C0.819357 6.94923 0.907622 7.01398 1.00612 7.06006C1.10462 7.10615 1.21141 7.13266 1.32036 7.13807C1.42931 7.14349 1.53828 7.1277 1.64101 7.09162C1.74373 7.05554 1.8382 6.99988 1.91897 6.92783C1.99974 6.85578 2.06524 6.76876 2.11169 6.67177C2.15815 6.57477 2.18464 6.46972 2.18967 6.36264C2.19469 6.25556 2.17813 6.14855 2.14095 6.04778L1.60828 4.5781C1.55099 4.41976 1.44528 4.28269 1.30562 4.18569C1.16597 4.08868 0.999204 4.03648 0.828178 4.03623L0.828282 4.03596ZM2.52172 0.0245186C2.35979 0.0244605 2.20139 0.0709268 2.06599 0.158199C1.9306 0.245472 1.82414 0.369741 1.7597 0.51571L1.13015 1.94792C1.08642 2.04608 1.06284 2.15176 1.06076 2.25889C1.05868 2.36603 1.07814 2.47251 1.11803 2.57224C1.15792 2.67197 1.21745 2.76298 1.29321 2.84006C1.36897 2.91713 1.45946 2.97875 1.55951 3.02139C1.65956 3.06403 1.76718 3.08684 1.87622 3.08853C1.98526 3.09021 2.09356 3.07072 2.19491 3.03119C2.29627 2.99166 2.38869 2.93286 2.46687 2.85816C2.54506 2.78346 2.60746 2.69433 2.65052 2.59588L3.28014 1.16367C3.33501 1.03987 3.35769 0.904612 3.34612 0.770065C3.33455 0.635517 3.28911 0.505911 3.21388 0.392916C3.13865 0.279922 3.036 0.187089 2.91517 0.122779C2.79434 0.0584691 2.65913 0.0247024 2.52172 0.0245186ZM2.31959 8.15119C2.18673 8.15146 2.05588 8.18306 1.93803 8.24333C1.82019 8.30361 1.71879 8.39081 1.64236 8.4976C1.56593 8.60439 1.51671 8.72764 1.49884 8.857C1.48096 8.98636 1.49495 9.11805 1.53963 9.241L2.0723 10.7106C2.10855 10.8117 2.16478 10.9048 2.23774 10.9845C2.3107 11.0642 2.39896 11.1289 2.49746 11.175C2.59596 11.2211 2.70275 11.2476 2.8117 11.253C2.92065 11.2584 3.02962 11.2427 3.13235 11.2066C3.23508 11.1705 3.32954 11.1148 3.41031 11.0428C3.49109 10.9707 3.55658 10.8837 3.60303 10.7867C3.64949 10.6897 3.67599 10.5847 3.68101 10.4776C3.68603 10.3705 3.66947 10.2635 3.63229 10.1627L3.09966 8.693C3.04238 8.53467 2.93667 8.39762 2.79703 8.30062C2.65739 8.20362 2.49063 8.15143 2.31962 8.15119H2.31959ZM15.5484 0C15.3317 6.77058e-05 15.1198 0.0624343 14.9387 0.179414C14.7576 0.296393 14.6154 0.462872 14.5294 0.658334L12.8706 4.43199C12.7589 4.68613 12.7491 4.9724 12.8434 5.23329L14.6881 10.322L13.1352 13.4244C13.0051 13.6842 12.9852 13.9841 13.0798 14.2583C13.1745 14.5325 13.376 14.7586 13.6402 14.887C13.7708 14.9506 13.913 14.9882 14.0585 14.9976C14.2039 15.0071 14.3499 14.9882 14.4879 14.942C14.6259 14.8958 14.7533 14.8233 14.8627 14.7286C14.9721 14.6339 15.0614 14.5188 15.1254 14.3901L16.8857 10.8733C16.9513 10.7421 16.9896 10.5992 16.9982 10.4532C17.0067 10.3072 16.9854 10.161 16.9355 10.0233L15.0805 4.90462L16.5654 1.52641C16.6388 1.36048 16.6691 1.17921 16.6535 0.998934C16.6379 0.818653 16.5769 0.645009 16.4761 0.49363C16.3752 0.342252 16.2376 0.217886 16.0757 0.131724C15.9138 0.0455627 15.7326 0.000308699 15.5485 3.34411e-05L15.5484 0ZM6.58456 4.7008C6.52298 4.70088 6.46204 4.71301 6.40529 4.73647C6.34853 4.75993 6.29709 4.79426 6.25398 4.83745C6.21086 4.88065 6.17693 4.93184 6.15416 4.98806C6.13138 5.04427 6.12023 5.10438 6.12134 5.16487L6.20895 10.1527C6.21083 10.2723 6.26049 10.3864 6.3472 10.4703C6.43392 10.5542 6.55073 10.6013 6.67245 10.6013C6.75621 10.6012 6.83833 10.5784 6.90984 10.5356L11.253 7.967C11.3226 7.92571 11.38 7.86717 11.4194 7.79724C11.4587 7.72731 11.4787 7.64844 11.4773 7.56853C11.4759 7.48862 11.4531 7.41048 11.4113 7.34194C11.3695 7.27339 11.3101 7.21684 11.239 7.17795L6.80846 4.75864C6.74008 4.72088 6.66299 4.70097 6.58456 4.7008Z" fill="#4F657A"/>
</svg>
