<svg width="17" height="17" viewBox="0 0 17 17" fill="none" xmlns="http://www.w3.org/2000/svg">
<path fill-rule="evenodd" clip-rule="evenodd" d="M8.70813 11.7059C8.48443 11.6613 8.25232 11.6898 8.04608 11.7872C7.83984 11.8847 7.6704 12.0458 7.56281 12.247C7.45521 12.4481 7.41516 12.6785 7.44857 12.9041C7.48198 13.1298 7.58708 13.3387 7.74834 13.5C7.9096 13.6613 8.11847 13.7665 8.3441 13.8C8.56973 13.8335 8.80015 13.7935 9.00132 13.686C9.20249 13.5785 9.36374 13.4091 9.46125 13.2029C9.55876 12.9967 9.58735 12.7646 9.54282 12.5409C9.50164 12.3348 9.40041 12.1456 9.25187 11.997C9.10333 11.8484 8.91414 11.7471 8.70813 11.7059ZM4.45817 7.45593C4.23438 7.41126 4.00216 7.43975 3.79581 7.53721C3.58946 7.63467 3.41994 7.79593 3.31228 7.99715C3.20463 8.19836 3.16456 8.42886 3.19798 8.65461C3.23141 8.88035 3.33656 9.08936 3.49791 9.25074C3.65926 9.41213 3.86824 9.51733 4.09397 9.55081C4.31971 9.5843 4.55023 9.54427 4.75147 9.43667C4.95271 9.32906 5.11401 9.15957 5.21152 8.95325C5.30903 8.74693 5.33758 8.51472 5.29296 8.29092C5.2517 8.0849 5.15041 7.89568 5.00185 7.7471C4.85329 7.59852 4.66419 7.49722 4.45817 7.45593ZM12.5423 9.5419C12.7661 9.58657 12.9983 9.55807 13.2046 9.46061C13.411 9.36314 13.5805 9.20189 13.6882 9.00067C13.7958 8.79946 13.8359 8.56895 13.8025 8.34321C13.7691 8.11747 13.6639 7.90846 13.5026 7.74707C13.3412 7.58569 13.1322 7.48049 12.9065 7.447C12.6808 7.41352 12.4502 7.45354 12.249 7.56115C12.0477 7.66876 11.8865 7.83824 11.7889 8.04457C11.6914 8.25089 11.6629 8.4831 11.7075 8.7069C11.7487 8.91294 11.8499 9.10218 11.9984 9.25077C12.147 9.39936 12.3363 9.50067 12.5423 9.5419ZM8.50363 1.95471e-06C8.25321 0.000370534 8.01312 0.0998829 7.83586 0.276781C7.65861 0.453679 7.55861 0.693564 7.55774 0.943986V2.80097C7.55429 3.01861 7.62442 3.23103 7.75679 3.40382C7.88916 3.57661 8.076 3.69964 8.28703 3.75296C8.42561 3.78482 8.56958 3.78508 8.70827 3.75373C8.84696 3.72239 8.97682 3.66023 9.08823 3.57188C9.19963 3.48352 9.28973 3.37122 9.35184 3.24331C9.41395 3.11541 9.44648 2.97516 9.44702 2.83297V1.96398C10.9778 2.18433 12.383 2.93399 13.4185 4.0827C14.454 5.23141 15.0543 6.70657 15.1153 8.25191C15.2476 11.8879 12.2528 15.0508 8.61533 15.1068C7.73752 15.1228 6.86534 14.9636 6.04977 14.6385C5.2342 14.3135 4.49159 13.8292 3.86535 13.2139C3.23911 12.5985 2.74179 11.8646 2.40247 11.0548C2.06315 10.2451 1.88863 9.37586 1.8891 8.49791C1.88484 6.97544 2.4128 5.49935 3.38169 4.32496L7.83164 8.78091C8.00836 8.95742 8.24791 9.05656 8.49768 9.05656C8.74745 9.05656 8.987 8.95742 9.16372 8.78091C9.25126 8.6936 9.3207 8.58986 9.36809 8.47567C9.41547 8.36147 9.43986 8.23905 9.43986 8.11542C9.43986 7.99178 9.41547 7.86935 9.36809 7.75516C9.3207 7.64096 9.25126 7.53724 9.16372 7.44992L4.02448 2.32297C3.84895 2.15 3.61341 2.05147 3.367 2.04793C3.12059 2.04439 2.88232 2.13612 2.70189 2.30398C1.8475 3.09329 1.16623 4.05133 0.701152 5.11749C0.236079 6.18365 -0.00266499 7.33473 2.24385e-05 8.49791C-0.000300624 9.63115 0.226043 10.753 0.665735 11.7975C1.10543 12.8419 1.74958 13.7879 2.5603 14.5797C3.37102 15.3715 4.33193 15.9932 5.38648 16.4081C6.44102 16.8231 7.56791 17.0229 8.70083 16.9958C13.1408 16.8918 16.8536 13.2099 16.9953 8.7719C17.0331 7.63336 16.8413 6.49887 16.4315 5.43598C16.0217 4.37309 15.4021 3.40355 14.6098 2.58507C13.8175 1.76659 12.8685 1.11592 11.8195 0.671809C10.7705 0.227699 9.6428 -0.000770995 8.50363 1.95471e-06Z" fill="#4F657A"/>
</svg>
