<svg width="6" height="5" viewBox="0 0 6 5" fill="none" xmlns="http://www.w3.org/2000/svg">
<path fill-rule="evenodd" clip-rule="evenodd" d="M6 0.845992C5.99992 0.800008 5.98759 0.754497 5.96373 0.712111C5.93987 0.669725 5.90497 0.631312 5.86104 0.599113C5.81712 0.566914 5.76506 0.541572 5.7079 0.524565C5.65074 0.507559 5.58962 0.499227 5.52811 0.500056L0.456154 0.565485C0.334555 0.566892 0.218573 0.603977 0.133233 0.668735C0.0478935 0.733494 4.05171e-05 0.820733 -1.79929e-08 0.911629C0.000143507 0.974186 0.0232692 1.03551 0.0668559 1.08892L2.67874 4.33242C2.72072 4.38443 2.78025 4.42728 2.85136 4.45668C2.92247 4.48608 3.00267 4.501 3.08392 4.49995C3.16518 4.49889 3.24464 4.4819 3.31434 4.45067C3.38404 4.41944 3.44155 4.37507 3.48109 4.32201L5.94119 1.01321C5.97958 0.96214 5.99983 0.904571 6 0.845992Z" fill="#808080"/>
</svg>
