<svg xmlns="http://www.w3.org/2000/svg" width="1208" height="1208" viewBox="0 0 1208 1208">
  <defs>
    <style>
      .cls-1 {
        fill: #4F657A;
        fill-rule: evenodd;
      }
    </style>
  </defs>
  <path id="Ellipse_1_copy_11" data-name="Ellipse 1 copy 11" class="cls-1" d="M7151,2088c-333.58,0-604-270.42-604-604s270.42-604,604-604,604,270.42,604,604S7484.58,2088,7151,2088Zm340.45-209.6-45.35-47.53c-169.94,144.89-421.17,144.7-590.88-.58l-45.38,47.49C7004.98,2047.19,7296.09,2047.39,7491.45,1878.4Zm-485.86-651.64c-7.38-9.61-21.25-28.75-54.8-28.75-33.37,0-57.06,26.99-57.06,60.28v351.66a57.06,57.06,0,0,0,114.12,0V1415.46L7104.31,1541a56.41,56.41,0,0,0,44.5,22c0.56,0,1.12.07,1.68,0.06,0.56,0.01,1.11-.06,1.67-0.06a56.41,56.41,0,0,0,44.5-22l96.47-125.54v194.49a57.055,57.055,0,0,0,114.11,0V1258.29c0-33.29-23.69-60.28-57.06-60.28-33.55,0-47.42,19.14-54.8,28.75-102.8,133.82-135.99,176.99-143.22,186.39h0l-1.67,2.19-1.68-2.19h0C7141.58,1403.75,7108.39,1360.58,7005.59,1226.76Zm144.11,442.95c-141.84,0-260.71,57.01-260.71,77.61,0,7.98,4.85,12.67,14.25,12.67h494.51c9.46,0,14.25-4.78,14.25-12.67C7412,1726.91,7293.1,1669.71,7149.7,1669.71ZM6804.13,1188.9l-47.53-45.35c-168.99,195.36-168.79,486.47.62,681.61l47.49-45.38C6659.43,1610.07,6659.24,1358.83,6804.13,1188.9Zm5.01-98.07,45.4,47.46c169.95-146.053,422.07-146.246,592.24-.58l45.38-47.49C7296.55,920.4,7004.51,920.607,6809.14,1090.83Zm735.64,52.01-47.49,45.38c145.66,170.17,145.47,422.29-.58,592.24l47.46,45.4C7714.39,1630.49,7714.6,1338.45,7544.78,1142.84Z" transform="translate(-6547 -880)"/>
</svg>
